M48
; DRILL file KiCad 10.0.6 date 2026-09-12T16:51:37
; FORMAT={-:-/ absolute / metric / decimal}
; #@! TF.CreationDate,2026-09-12T16:51:37-07:00
; #@! TF.GenerationSoftware,Kicad,Pcbnew,10.0.6
; #@! TF.FileFunction,Plated,1,2,PTH
FMAT,2
METRIC
; #@! TA.AperFunction,Plated,PTH,ViaDrill
T1C0.150
; #@! TA.AperFunction,Plated,PTH,ComponentDrill
T2C0.600
%
G90
G05
T1
X8.8Y-17.3
X9.85Y-13.75
X11.55Y-21.2
X12.45Y-17.3
X13.5Y-19.25
X14.65Y-1.95
X15.45Y-12.8
X15.5Y-2.0
X15.7Y-11.75
X17.1Y-15.7
X17.1Y-17.35
X17.15Y-11.05
X17.15Y-13.75
X17.55Y-20.85
X17.55Y-21.8
X18.25Y-21.8
X18.75Y-21.8
X19.25Y-21.8
X19.75Y-21.8
X19.8Y-16.5
X20.0Y-7.5
X20.1Y-17.2
X20.1Y-17.8
X20.25Y-21.8
X20.3Y-19.6
X20.75Y-21.8
X20.95Y-11.35
X21.25Y-21.8
X21.55Y-16.1
X21.7Y-12.4
X21.7Y-14.15
X21.75Y-21.8
X22.1Y-8.4
X22.1Y-9.4
X22.45Y-20.85
X22.45Y-21.8
X22.85Y-11.35
T2
X15.68Y-22.17G85X15.68Y-23.27
G05
X15.68Y-26.6G85X15.68Y-27.2
G05
X24.32Y-22.17G85X24.32Y-23.27
G05
X24.32Y-26.6G85X24.32Y-27.2
G05
M30
