%TF.GenerationSoftware,KiCad,Pcbnew,10.0.6*%
%TF.CreationDate,2026-09-12T16:51:36-07:00*%
%TF.ProjectId,layout,6c61796f-7574-42e6-9b69-6361645f7063,v0.0.0*%
%TF.SameCoordinates,Original*%
%TF.FileFunction,Copper,L1,Top*%
%TF.FilePolarity,Positive*%
%FSLAX46Y46*%
G04 Gerber Fmt 4.6, Leading zero omitted, Abs format (unit mm)*
G04 Created by KiCad (PCBNEW 10.0.6) date 2026-09-12 16:51:36*
%MOMM*%
%LPD*%
G01*
G04 APERTURE LIST*
G04 Aperture macros list*
%AMRoundRect*
0 Rectangle with rounded corners*
0 $1 Rounding radius*
0 $2 $3 $4 $5 $6 $7 $8 $9 X,Y pos of 4 corners*
0 Add a 4 corners polygon primitive as box body*
4,1,4,$2,$3,$4,$5,$6,$7,$8,$9,$2,$3,0*
0 Add four circle primitives for the rounded corners*
1,1,$1+$1,$2,$3*
1,1,$1+$1,$4,$5*
1,1,$1+$1,$6,$7*
1,1,$1+$1,$8,$9*
0 Add four rect primitives between the rounded corners*
20,1,$1+$1,$2,$3,$4,$5,0*
20,1,$1+$1,$4,$5,$6,$7,0*
20,1,$1+$1,$6,$7,$8,$9,0*
20,1,$1+$1,$8,$9,$2,$3,0*%
%AMOutline5P*
0 Free polygon, 5 corners , with rotation*
0 The origin of the aperture is its center*
0 number of corners: always 5*
0 $1 to $10 corner X, Y*
0 $11 Rotation angle, in degrees counterclockwise*
0 create outline with 5 corners*
4,1,5,$1,$2,$3,$4,$5,$6,$7,$8,$9,$10,$1,$2,$11*%
%AMOutline6P*
0 Free polygon, 6 corners , with rotation*
0 The origin of the aperture is its center*
0 number of corners: always 6*
0 $1 to $12 corner X, Y*
0 $13 Rotation angle, in degrees counterclockwise*
0 create outline with 6 corners*
4,1,6,$1,$2,$3,$4,$5,$6,$7,$8,$9,$10,$11,$12,$1,$2,$13*%
%AMOutline7P*
0 Free polygon, 7 corners , with rotation*
0 The origin of the aperture is its center*
0 number of corners: always 7*
0 $1 to $14 corner X, Y*
0 $15 Rotation angle, in degrees counterclockwise*
0 create outline with 7 corners*
4,1,7,$1,$2,$3,$4,$5,$6,$7,$8,$9,$10,$11,$12,$13,$14,$1,$2,$15*%
%AMOutline8P*
0 Free polygon, 8 corners , with rotation*
0 The origin of the aperture is its center*
0 number of corners: always 8*
0 $1 to $16 corner X, Y*
0 $17 Rotation angle, in degrees counterclockwise*
0 create outline with 8 corners*
4,1,8,$1,$2,$3,$4,$5,$6,$7,$8,$9,$10,$11,$12,$13,$14,$15,$16,$1,$2,$17*%
G04 Aperture macros list end*
%TA.AperFunction,SMDPad,CuDef*%
%ADD10R,0.900000X1.700000*%
%TD*%
%TA.AperFunction,SMDPad,CuDef*%
%ADD11RoundRect,0.135000X-0.135000X-0.185000X0.135000X-0.185000X0.135000X0.185000X-0.135000X0.185000X0*%
%TD*%
%TA.AperFunction,SMDPad,CuDef*%
%ADD12RoundRect,0.150000X-0.150000X0.512500X-0.150000X-0.512500X0.150000X-0.512500X0.150000X0.512500X0*%
%TD*%
%TA.AperFunction,SMDPad,CuDef*%
%ADD13RoundRect,0.150000X-0.150000X-0.575000X0.150000X-0.575000X0.150000X0.575000X-0.150000X0.575000X0*%
%TD*%
%TA.AperFunction,SMDPad,CuDef*%
%ADD14RoundRect,0.075000X-0.075000X-0.650000X0.075000X-0.650000X0.075000X0.650000X-0.075000X0.650000X0*%
%TD*%
%TA.AperFunction,ComponentPad*%
%ADD15O,1.000000X2.100000*%
%TD*%
%TA.AperFunction,ComponentPad*%
%ADD16O,1.000000X1.600000*%
%TD*%
%TA.AperFunction,SMDPad,CuDef*%
%ADD17RoundRect,0.140000X0.170000X-0.140000X0.170000X0.140000X-0.170000X0.140000X-0.170000X-0.140000X0*%
%TD*%
%TA.AperFunction,SMDPad,CuDef*%
%ADD18C,1.000000*%
%TD*%
%TA.AperFunction,SMDPad,CuDef*%
%ADD19RoundRect,0.225000X0.250000X-0.225000X0.250000X0.225000X-0.250000X0.225000X-0.250000X-0.225000X0*%
%TD*%
%TA.AperFunction,SMDPad,CuDef*%
%ADD20RoundRect,0.140000X-0.140000X-0.170000X0.140000X-0.170000X0.140000X0.170000X-0.140000X0.170000X0*%
%TD*%
%TA.AperFunction,SMDPad,CuDef*%
%ADD21RoundRect,0.135000X-0.185000X0.135000X-0.185000X-0.135000X0.185000X-0.135000X0.185000X0.135000X0*%
%TD*%
%TA.AperFunction,SMDPad,CuDef*%
%ADD22RoundRect,0.150000X-0.512500X-0.150000X0.512500X-0.150000X0.512500X0.150000X-0.512500X0.150000X0*%
%TD*%
%TA.AperFunction,SMDPad,CuDef*%
%ADD23RoundRect,0.135000X0.185000X-0.135000X0.185000X0.135000X-0.185000X0.135000X-0.185000X-0.135000X0*%
%TD*%
%TA.AperFunction,SMDPad,CuDef*%
%ADD24RoundRect,0.218750X0.218750X0.256250X-0.218750X0.256250X-0.218750X-0.256250X0.218750X-0.256250X0*%
%TD*%
%TA.AperFunction,SMDPad,CuDef*%
%ADD25RoundRect,0.225000X-0.225000X-0.250000X0.225000X-0.250000X0.225000X0.250000X-0.225000X0.250000X0*%
%TD*%
%TA.AperFunction,SMDPad,CuDef*%
%ADD26R,0.800000X0.400000*%
%TD*%
%TA.AperFunction,SMDPad,CuDef*%
%ADD27R,0.400000X0.800000*%
%TD*%
%TA.AperFunction,HeatsinkPad*%
%ADD28Outline5P,-0.725000X0.130500X-0.130500X0.725000X0.725000X0.725000X0.725000X-0.725000X-0.725000X-0.725000X0.000000*%
%TD*%
%TA.AperFunction,HeatsinkPad*%
%ADD29R,1.450000X1.450000*%
%TD*%
%TA.AperFunction,SMDPad,CuDef*%
%ADD30R,0.700000X0.700000*%
%TD*%
%TA.AperFunction,ViaPad*%
%ADD31C,0.250000*%
%TD*%
%TA.AperFunction,Conductor*%
%ADD32C,0.100000*%
%TD*%
%TA.AperFunction,Conductor*%
%ADD33C,0.400000*%
%TD*%
%TA.AperFunction,Conductor*%
%ADD34C,0.200000*%
%TD*%
G04 APERTURE END LIST*
D10*
%TO.P,U5,1*%
%TO.N,EN*%
X12900000Y-17600000D03*
%TO.P,U5,2*%
%TO.N,GND*%
X9500000Y-17600000D03*
%TD*%
D11*
%TO.P,R2,1*%
%TO.N,CC1*%
X19990000Y-18400000D03*
%TO.P,R2,2*%
%TO.N,GND*%
X21010000Y-18400000D03*
%TD*%
D12*
%TO.P,U3,1*%
%TO.N,USB_DP*%
X22850000Y-11362500D03*
%TO.P,U3,2*%
%TO.N,GND*%
X21900000Y-11362500D03*
%TO.P,U3,3*%
%TO.N,USB_DN*%
X20950000Y-11362500D03*
%TO.P,U3,4*%
X20950000Y-13637500D03*
%TO.P,U3,5*%
%TO.N,VBUS*%
X21900000Y-13637500D03*
%TO.P,U3,6*%
%TO.N,USB_DP*%
X22850000Y-13637500D03*
%TD*%
D13*
%TO.P,J1,A1*%
%TO.N,GND*%
X16750000Y-21805000D03*
%TO.P,J1,A4*%
%TO.N,VBUS*%
X17550000Y-21805000D03*
D14*
%TO.P,J1,A5*%
%TO.N,CC1*%
X18750000Y-21805000D03*
%TO.P,J1,A6*%
%TO.N,USB_DP*%
X19750000Y-21805000D03*
%TO.P,J1,A7*%
%TO.N,USB_DN*%
X20250000Y-21805000D03*
%TO.P,J1,A8*%
%TO.N,J1.SBU1*%
X21250000Y-21805000D03*
D13*
%TO.P,J1,A9*%
%TO.N,VBUS*%
X22450000Y-21805000D03*
%TO.P,J1,A12*%
%TO.N,GND*%
X23250000Y-21805000D03*
%TO.P,J1,B1*%
X23250000Y-21805000D03*
%TO.P,J1,B4*%
%TO.N,VBUS*%
X22450000Y-21805000D03*
D14*
%TO.P,J1,B5*%
%TO.N,CC2*%
X21750000Y-21805000D03*
%TO.P,J1,B6*%
%TO.N,USB_DP*%
X20750000Y-21805000D03*
%TO.P,J1,B7*%
%TO.N,USB_DN*%
X19250000Y-21805000D03*
%TO.P,J1,B8*%
%TO.N,J1.SBU2*%
X18250000Y-21805000D03*
D13*
%TO.P,J1,B9*%
%TO.N,VBUS*%
X17550000Y-21805000D03*
%TO.P,J1,B12*%
%TO.N,GND*%
X16750000Y-21805000D03*
D15*
%TO.P,J1,SH*%
X15680000Y-22720000D03*
D16*
X15680000Y-26900000D03*
D15*
X24320000Y-22720000D03*
D16*
X24320000Y-26900000D03*
%TD*%
D17*
%TO.P,C2,1*%
%TO.N,3V3*%
X12800000Y-26780000D03*
%TO.P,C2,2*%
%TO.N,GND*%
X12800000Y-25820000D03*
%TD*%
D10*
%TO.P,U4,1*%
%TO.N,BOOT*%
X15215000Y-16510000D03*
%TO.P,U4,2*%
%TO.N,GND*%
X18615000Y-16510000D03*
%TD*%
D18*
%TO.P,FID1,*%
%TO.N,*%
X36000000Y-4000000D03*
%TD*%
D11*
%TO.P,R3,1*%
%TO.N,CC2*%
X25490000Y-19200000D03*
%TO.P,R3,2*%
%TO.N,GND*%
X26510000Y-19200000D03*
%TD*%
D19*
%TO.P,C4,1*%
%TO.N,3V3*%
X26900000Y-15675000D03*
%TO.P,C4,2*%
%TO.N,GND*%
X26900000Y-14125000D03*
%TD*%
D20*
%TO.P,C5,1*%
%TO.N,3V3*%
X15520000Y-19100000D03*
%TO.P,C5,2*%
%TO.N,GND*%
X16480000Y-19100000D03*
%TD*%
D21*
%TO.P,R1,1*%
%TO.N,3V3*%
X22100000Y-5790000D03*
%TO.P,R1,2*%
%TO.N,BOOT*%
X22100000Y-6810000D03*
%TD*%
D22*
%TO.P,U2,1*%
%TO.N,VBUS*%
X9062500Y-21350000D03*
%TO.P,U2,2*%
%TO.N,GND*%
X9062500Y-22300000D03*
%TO.P,U2,3*%
%TO.N,U2.EN*%
X9062500Y-23250000D03*
%TO.P,U2,4*%
%TO.N,U2.NC*%
X11337500Y-23250000D03*
%TO.P,U2,5*%
%TO.N,3V3*%
X11337500Y-21350000D03*
%TD*%
D19*
%TO.P,C1,1*%
%TO.N,3V3*%
X19800000Y-7475000D03*
%TO.P,C1,2*%
%TO.N,GND*%
X19800000Y-5925000D03*
%TD*%
D23*
%TO.P,R4,1*%
%TO.N,3V3*%
X6900000Y-18310000D03*
%TO.P,R4,2*%
%TO.N,EN*%
X6900000Y-17290000D03*
%TD*%
D24*
%TO.P,D1,1*%
%TO.N,GND*%
X26087500Y-7900000D03*
%TO.P,D1,2*%
%TO.N,LED_A*%
X24512500Y-7900000D03*
%TD*%
D20*
%TO.P,C7,1*%
%TO.N,VBUS*%
X19320000Y-19600000D03*
%TO.P,C7,2*%
%TO.N,GND*%
X20280000Y-19600000D03*
%TD*%
D18*
%TO.P,FID2,*%
%TO.N,*%
X36000000Y-26000000D03*
%TD*%
D25*
%TO.P,C6,1*%
%TO.N,VBUS*%
X21925000Y-16000000D03*
%TO.P,C6,2*%
%TO.N,GND*%
X23475000Y-16000000D03*
%TD*%
D11*
%TO.P,R5,1*%
%TO.N,LED*%
X20290000Y-8900000D03*
%TO.P,R5,2*%
%TO.N,LED_A*%
X21310000Y-8900000D03*
%TD*%
D26*
%TO.P,U1,1*%
%TO.N,GND*%
X8250000Y-13750000D03*
%TO.P,U1,2*%
X9050000Y-13750000D03*
%TO.P,U1,3*%
%TO.N,3V3*%
X9850000Y-13750000D03*
%TO.P,U1,4*%
%TO.N,U1.NC*%
X10650000Y-13750000D03*
%TO.P,U1,5*%
%TO.N,U1.IO2*%
X11450000Y-13750000D03*
%TO.P,U1,6*%
%TO.N,U1.IO3*%
X12250000Y-13750000D03*
%TO.P,U1,7*%
%TO.N,U1.NC*%
X13050000Y-13750000D03*
%TO.P,U1,8*%
%TO.N,EN*%
X13850000Y-13750000D03*
%TO.P,U1,9*%
%TO.N,U1.NC*%
X14650000Y-13750000D03*
%TO.P,U1,10*%
X15450000Y-13750000D03*
%TO.P,U1,11*%
%TO.N,GND*%
X16250000Y-13750000D03*
D27*
%TO.P,U1,12*%
%TO.N,U1.IO0*%
X17150000Y-12650000D03*
%TO.P,U1,13*%
%TO.N,U1.IO1*%
X17150000Y-11850000D03*
%TO.P,U1,14*%
%TO.N,GND*%
X17150000Y-11050000D03*
%TO.P,U1,15*%
%TO.N,U1.NC*%
X17150000Y-10250000D03*
%TO.P,U1,16*%
%TO.N,LED*%
X17150000Y-9450000D03*
%TO.P,U1,17*%
%TO.N,U1.NC*%
X17150000Y-8650000D03*
%TO.P,U1,18*%
%TO.N,U1.IO4*%
X17150000Y-7850000D03*
%TO.P,U1,19*%
%TO.N,U1.IO5*%
X17150000Y-7050000D03*
%TO.P,U1,20*%
%TO.N,U1.IO6*%
X17150000Y-6250000D03*
%TO.P,U1,21*%
%TO.N,U1.IO7*%
X17150000Y-5450000D03*
%TO.P,U1,22*%
%TO.N,U1.IO8*%
X17150000Y-4650000D03*
%TO.P,U1,23*%
%TO.N,BOOT*%
X17150000Y-3850000D03*
%TO.P,U1,24*%
%TO.N,U1.NC*%
X17150000Y-3050000D03*
D26*
%TO.P,U1,25*%
X16250000Y-1950000D03*
%TO.P,U1,26*%
%TO.N,USB_DN*%
X15450000Y-1950000D03*
%TO.P,U1,27*%
%TO.N,USB_DP*%
X14650000Y-1950000D03*
%TO.P,U1,28*%
%TO.N,U1.NC*%
X13850000Y-1950000D03*
%TO.P,U1,29*%
X13050000Y-1950000D03*
%TO.P,U1,30*%
%TO.N,U1.RXD0*%
X12250000Y-1950000D03*
%TO.P,U1,31*%
%TO.N,U1.TXD0*%
X11450000Y-1950000D03*
%TO.P,U1,32*%
%TO.N,U1.NC*%
X10650000Y-1950000D03*
%TO.P,U1,33*%
X9850000Y-1950000D03*
%TO.P,U1,34*%
X9050000Y-1950000D03*
%TO.P,U1,35*%
X8250000Y-1950000D03*
D27*
%TO.P,U1,36*%
%TO.N,GND*%
X7350000Y-3050000D03*
%TO.P,U1,37*%
X7350000Y-3850000D03*
%TO.P,U1,38*%
X7350000Y-4650000D03*
%TO.P,U1,39*%
X7350000Y-5450000D03*
%TO.P,U1,40*%
X7350000Y-6250000D03*
%TO.P,U1,41*%
X7350000Y-7050000D03*
%TO.P,U1,42*%
X7350000Y-7850000D03*
%TO.P,U1,43*%
X7350000Y-8650000D03*
%TO.P,U1,44*%
X7350000Y-9450000D03*
%TO.P,U1,45*%
X7350000Y-10250000D03*
%TO.P,U1,46*%
X7350000Y-11050000D03*
%TO.P,U1,47*%
X7350000Y-11850000D03*
%TO.P,U1,48*%
X7350000Y-12650000D03*
D28*
%TO.P,U1,49*%
X10275000Y-9825000D03*
D29*
X12250000Y-9825000D03*
X14225000Y-9825000D03*
X10275000Y-7850000D03*
X12250000Y-7850000D03*
X14225000Y-7850000D03*
X10275000Y-5875000D03*
X12250000Y-5875000D03*
X14225000Y-5875000D03*
D30*
%TO.P,U1,50*%
X7300000Y-1900000D03*
%TO.P,U1,51*%
X17200000Y-1900000D03*
%TO.P,U1,52*%
X17200000Y-13800000D03*
%TO.P,U1,53*%
X7300000Y-13800000D03*
%TD*%
D20*
%TO.P,C3,1*%
%TO.N,EN*%
X22685000Y-18026000D03*
%TO.P,C3,2*%
%TO.N,GND*%
X23645000Y-18026000D03*
%TD*%
D18*
%TO.P,FID3,*%
%TO.N,*%
X4000000Y-26000000D03*
%TD*%
D31*
%TO.N,EN*%
X8800000Y-17300000D03*
X12450000Y-17300000D03*
%TO.N,GND*%
X17150000Y-13750000D03*
X20100000Y-17800000D03*
X21700000Y-12400000D03*
X20300000Y-19600000D03*
X19800000Y-16500000D03*
X17150000Y-11050000D03*
%TO.N,CC1*%
X18750000Y-21800000D03*
%TO.N,USB_DP*%
X22850000Y-11350000D03*
X14650000Y-1950000D03*
X19750000Y-21800000D03*
X20750000Y-21800000D03*
%TO.N,USB_DN*%
X15500000Y-2000000D03*
X20950000Y-11350000D03*
X19250000Y-21800000D03*
X20250000Y-21800000D03*
%TO.N,VBUS*%
X22450000Y-21800000D03*
X21550000Y-16100000D03*
X17550000Y-21800000D03*
X22450000Y-20850000D03*
X21700000Y-14150000D03*
X20100000Y-17200000D03*
X17550000Y-20850000D03*
%TO.N,J1.SBU1*%
X21250000Y-21800000D03*
%TO.N,CC2*%
X21750000Y-21800000D03*
%TO.N,J1.SBU2*%
X18250000Y-21800000D03*
%TO.N,3V3*%
X17100000Y-15700000D03*
X20000000Y-7500000D03*
X22100000Y-8400000D03*
X22100000Y-9400000D03*
X11550000Y-21200000D03*
X9850000Y-13750000D03*
X13500000Y-19250000D03*
X17100000Y-17350000D03*
%TO.N,U1.NC*%
X15450000Y-12800000D03*
X15700000Y-11750000D03*
%TD*%
%TO.N,EN*%
D32*
X20700000Y-12750000D02*
X23100000Y-12750000D01*
X15400000Y-18050000D02*
X20700000Y-12750000D01*
X13850000Y-13800000D02*
X13850000Y-13750000D01*
X8800000Y-17300000D02*
X6900000Y-17300000D01*
X12600000Y-17300000D02*
X12450000Y-17300000D01*
X22700000Y-18050000D02*
X22685000Y-18026000D01*
X12900000Y-17600000D02*
X12600000Y-17300000D01*
X22700000Y-14950000D02*
X22700000Y-18050000D01*
X8800000Y-17300000D02*
X8850000Y-17250000D01*
X11400000Y-14150000D02*
X13500000Y-14150000D01*
X23300000Y-14350000D02*
X22700000Y-14950000D01*
X23300000Y-12950000D02*
X23300000Y-14350000D01*
X8850000Y-17250000D02*
X8850000Y-16700000D01*
X13500000Y-14150000D02*
X13850000Y-13800000D01*
X8850000Y-16700000D02*
X11400000Y-14150000D01*
X13350000Y-18050000D02*
X15400000Y-18050000D01*
X23100000Y-12750000D02*
X23300000Y-12950000D01*
%TO.N,GND*%
D33*
X23450000Y-23900000D02*
X23400000Y-23900000D01*
X16250000Y-23150000D02*
X16300000Y-23100000D01*
X23200000Y-24050000D02*
X23100000Y-24050000D01*
X12000000Y-17600000D02*
X9500000Y-17600000D01*
D32*
X8500000Y-22300000D02*
X9050000Y-22300000D01*
D33*
X8050000Y-21850000D02*
X8500000Y-22300000D01*
X8000000Y-21750000D02*
X8050000Y-21800000D01*
X10300000Y-7850000D02*
X10275000Y-7850000D01*
X22500000Y-5150000D02*
X22450000Y-5100000D01*
X7950000Y-21600000D02*
X8000000Y-21650000D01*
X26200000Y-18900000D02*
X26200000Y-19500000D01*
X12250000Y-5900000D02*
X14200000Y-5900000D01*
D34*
X21900000Y-12400000D02*
X21900000Y-11350000D01*
D33*
X23050000Y-24100000D02*
X16750000Y-24100000D01*
X15700000Y-25150000D02*
X15700000Y-26900000D01*
X17700000Y-18050000D02*
X15900000Y-19850000D01*
X25850000Y-18450000D02*
X26150000Y-18750000D01*
X23650000Y-18050000D02*
X24050000Y-18450000D01*
X17700000Y-17400000D02*
X17700000Y-18050000D01*
X16250000Y-23350000D02*
X16250000Y-23150000D01*
X16450000Y-22750000D02*
X16450000Y-22700000D01*
X12000000Y-18600000D02*
X12000000Y-16700000D01*
X22300000Y-5050000D02*
X20650000Y-5050000D01*
X10300000Y-7850000D02*
X12250000Y-7850000D01*
X16350000Y-23550000D02*
X16300000Y-23500000D01*
X23300000Y-24000000D02*
X23250000Y-24000000D01*
X22600000Y-5150000D02*
X22500000Y-5150000D01*
X7350000Y-12650000D02*
X7300000Y-12700000D01*
X26250000Y-19200000D02*
X26500000Y-19200000D01*
X23100000Y-24050000D02*
X23050000Y-24100000D01*
X10300000Y-7850000D02*
X7350000Y-7850000D01*
X7350000Y-3050000D02*
X7300000Y-3000000D01*
X10300000Y-9800000D02*
X10300000Y-7850000D01*
X14200000Y-5900000D02*
X14225000Y-5875000D01*
X7300000Y-3000000D02*
X7300000Y-1900000D01*
X27800000Y-16050000D02*
X27300000Y-16550000D01*
X27300000Y-16550000D02*
X24050000Y-16550000D01*
X27800000Y-15150000D02*
X27800000Y-16050000D01*
D34*
X23700000Y-12950000D02*
X23150000Y-12400000D01*
D33*
X26900000Y-14100000D02*
X26900000Y-14250000D01*
X24300000Y-23050000D02*
X23450000Y-23900000D01*
D32*
X23700000Y-14350000D02*
X23700000Y-12950000D01*
D33*
X16450000Y-23750000D02*
X16350000Y-23650000D01*
X10100000Y-18950000D02*
X7950000Y-21100000D01*
D34*
X21700000Y-12400000D02*
X21900000Y-12400000D01*
D33*
X26900000Y-14100000D02*
X26100000Y-13300000D01*
D34*
X20100000Y-17800000D02*
X20400000Y-17800000D01*
D33*
X7300000Y-12700000D02*
X7300000Y-13800000D01*
X12250000Y-9800000D02*
X10300000Y-9800000D01*
X16750000Y-22400000D02*
X16750000Y-21800000D01*
X15900000Y-19850000D02*
X13250000Y-19850000D01*
X22450000Y-5100000D02*
X22350000Y-5100000D01*
X16300000Y-23100000D02*
X16300000Y-23000000D01*
X24050000Y-16550000D02*
X23500000Y-16000000D01*
X15700000Y-25800000D02*
X12800000Y-25800000D01*
X22350000Y-5100000D02*
X22300000Y-5050000D01*
X12350000Y-18950000D02*
X10100000Y-18950000D01*
X12250000Y-9800000D02*
X12250000Y-9825000D01*
D32*
X14200000Y-14400000D02*
X16600000Y-14400000D01*
D33*
X16550000Y-19200000D02*
X16500000Y-19150000D01*
X16500000Y-19150000D02*
X16500000Y-19100000D01*
X16300000Y-23400000D02*
X16250000Y-23350000D01*
X24000000Y-21800000D02*
X24300000Y-22100000D01*
X10300000Y-5900000D02*
X10275000Y-5875000D01*
X14200000Y-7850000D02*
X14225000Y-7850000D01*
X12050000Y-16650000D02*
X12050000Y-16550000D01*
D34*
X23500000Y-14550000D02*
X23700000Y-14350000D01*
D33*
X24000000Y-21800000D02*
X23250000Y-21800000D01*
X23250000Y-24000000D02*
X23200000Y-24050000D01*
X26100000Y-13300000D02*
X26100000Y-7900000D01*
D34*
X23150000Y-12400000D02*
X21700000Y-12400000D01*
D33*
X12000000Y-16700000D02*
X12050000Y-16650000D01*
X20650000Y-5050000D02*
X19800000Y-5900000D01*
D34*
X23500000Y-16000000D02*
X23500000Y-14550000D01*
D33*
X24050000Y-16550000D02*
X23650000Y-16950000D01*
X23500000Y-16000000D02*
X23475000Y-16000000D01*
X23400000Y-23900000D02*
X23300000Y-24000000D01*
X16300000Y-23500000D02*
X16300000Y-23400000D01*
X14200000Y-9800000D02*
X14225000Y-9825000D01*
X10300000Y-5900000D02*
X12250000Y-5900000D01*
X14200000Y-10900000D02*
X14200000Y-9800000D01*
X20500000Y-5200000D02*
X17200000Y-1900000D01*
X26200000Y-19500000D02*
X26150000Y-19550000D01*
X16350000Y-22850000D02*
X16450000Y-22750000D01*
D34*
X20400000Y-17800000D02*
X21000000Y-18400000D01*
D33*
X24050000Y-18450000D02*
X25850000Y-18450000D01*
X14200000Y-9800000D02*
X12250000Y-9800000D01*
X26150000Y-18850000D02*
X26200000Y-18900000D01*
X16300000Y-23000000D02*
X16350000Y-22950000D01*
X26900000Y-14250000D02*
X27800000Y-15150000D01*
X8000000Y-21650000D02*
X8000000Y-21750000D01*
X16650000Y-13350000D02*
X16250000Y-13750000D01*
X26200000Y-19150000D02*
X26250000Y-19200000D01*
X26150000Y-19650000D02*
X24000000Y-21800000D01*
X10300000Y-7850000D02*
X10300000Y-5900000D01*
X23350000Y-5900000D02*
X22600000Y-5150000D01*
X26150000Y-19550000D02*
X26150000Y-19650000D01*
X7300000Y-13750000D02*
X8250000Y-13750000D01*
X17200000Y-13800000D02*
X17150000Y-13750000D01*
X13250000Y-19850000D02*
X12000000Y-18600000D01*
X16750000Y-24100000D02*
X15700000Y-25150000D01*
X23650000Y-18050000D02*
X23645000Y-18026000D01*
X12250000Y-5900000D02*
X12250000Y-5875000D01*
X16600000Y-14400000D02*
X17200000Y-13800000D01*
X16350000Y-22850000D02*
X16200000Y-22700000D01*
X23650000Y-16950000D02*
X23650000Y-18050000D01*
X24300000Y-22700000D02*
X24300000Y-26900000D01*
X24300000Y-22100000D02*
X24300000Y-22700000D01*
X16350000Y-23650000D02*
X16350000Y-23550000D01*
X24100000Y-5900000D02*
X23350000Y-5900000D01*
X16750000Y-13450000D02*
X14200000Y-10900000D01*
X26900000Y-14125000D02*
X26900000Y-14100000D01*
X26100000Y-7900000D02*
X24100000Y-5900000D01*
X16200000Y-22700000D02*
X16180000Y-22700000D01*
X17150000Y-13750000D02*
X16850000Y-13450000D01*
X19800000Y-16500000D02*
X18600000Y-16500000D01*
X16450000Y-23800000D02*
X16450000Y-23750000D01*
X16350000Y-22950000D02*
X16350000Y-22850000D01*
X7950000Y-21100000D02*
X7950000Y-21600000D01*
X10300000Y-9800000D02*
X10275000Y-9825000D01*
X8050000Y-21800000D02*
X8050000Y-21850000D01*
X26150000Y-18750000D02*
X26150000Y-18850000D01*
X16750000Y-24100000D02*
X16450000Y-23800000D01*
X12050000Y-16550000D02*
X14200000Y-14400000D01*
X19800000Y-5900000D02*
X19800000Y-5925000D01*
X18600000Y-16500000D02*
X17700000Y-17400000D01*
X16850000Y-13450000D02*
X16750000Y-13450000D01*
X12250000Y-7850000D02*
X14200000Y-7850000D01*
D32*
X16450000Y-22700000D02*
X16750000Y-22400000D01*
%TO.N,CC1*%
X20000000Y-19100000D02*
X20000000Y-18400000D01*
X18750000Y-21805000D02*
X18750000Y-21800000D01*
X18900000Y-21050000D02*
X19850000Y-20100000D01*
X19850000Y-19250000D02*
X20000000Y-19100000D01*
X18900000Y-21150000D02*
X18900000Y-21050000D01*
X19850000Y-20100000D02*
X19850000Y-19250000D01*
%TO.N,USB_DP*%
X20750000Y-21805000D02*
X20750000Y-21800000D01*
X21800000Y-14941421D02*
X21800000Y-14800000D01*
X22850000Y-13650000D02*
X22400000Y-14100000D01*
X22850000Y-11362500D02*
X22850000Y-11350000D01*
X22400000Y-14250000D02*
X22350000Y-14300000D01*
X20500000Y-16491421D02*
X21200000Y-15791421D01*
X22500000Y-18991421D02*
X22500000Y-18658579D01*
X22500000Y-18658579D02*
X20500000Y-16658579D01*
X22350000Y-14350000D02*
X21900000Y-14800000D01*
X20600000Y-21800000D02*
X20600000Y-20891421D01*
X19750000Y-21805000D02*
X19750000Y-21800000D01*
X22850000Y-13637500D02*
X22850000Y-13650000D01*
X21200000Y-15791421D02*
X21200000Y-15541421D01*
X22350000Y-14300000D02*
X22350000Y-14350000D01*
X20750000Y-21800000D02*
X20600000Y-21800000D01*
X20600000Y-20891421D02*
X22500000Y-18991421D01*
X21900000Y-14800000D02*
X21800000Y-14800000D01*
X21200000Y-15541421D02*
X21800000Y-14941421D01*
X20500000Y-16658579D02*
X20500000Y-16491421D01*
X22400000Y-14100000D02*
X22400000Y-14250000D01*
%TO.N,USB_DN*%
X20950000Y-13650000D02*
X21400000Y-14100000D01*
X21450000Y-14300000D02*
X21450000Y-14350000D01*
X21450000Y-14350000D02*
X21600000Y-14500000D01*
X21400000Y-14250000D02*
X21450000Y-14300000D01*
X20950000Y-11362500D02*
X20950000Y-11350000D01*
X20250000Y-21805000D02*
X20250000Y-21800000D01*
X21600000Y-14500000D02*
X21600000Y-14800000D01*
X20950000Y-13637500D02*
X20950000Y-13650000D01*
X20300000Y-16408579D02*
X21000000Y-15708579D01*
X19250000Y-21805000D02*
X19250000Y-21800000D01*
X21000000Y-15708579D02*
X21000000Y-15458579D01*
X15450000Y-1950000D02*
X15500000Y-2000000D01*
X20400000Y-20808579D02*
X22300000Y-18908579D01*
X22300000Y-18908579D02*
X22300000Y-18741421D01*
X21000000Y-15458579D02*
X21600000Y-14858579D01*
X20300000Y-16741421D02*
X20300000Y-16408579D01*
X21400000Y-14100000D02*
X21400000Y-14250000D01*
X20400000Y-21800000D02*
X20400000Y-20808579D01*
X22300000Y-18741421D02*
X20300000Y-16741421D01*
X20250000Y-21800000D02*
X20400000Y-21800000D01*
X21600000Y-14858579D02*
X21600000Y-14800000D01*
%TO.N,VBUS*%
D33*
X19400000Y-17850000D02*
X20050000Y-17200000D01*
X19350000Y-19550000D02*
X19350000Y-19450000D01*
D32*
X17550000Y-21805000D02*
X17550000Y-20850000D01*
D33*
X10700000Y-20600000D02*
X17300000Y-20600000D01*
D32*
X22450000Y-21805000D02*
X22450000Y-20850000D01*
D33*
X19350000Y-19300000D02*
X19350000Y-19200000D01*
X10100000Y-21350000D02*
X10100000Y-21200000D01*
X19400000Y-19150000D02*
X19400000Y-17850000D01*
X19300000Y-19400000D02*
X19300000Y-19350000D01*
X17550000Y-20850000D02*
X18800000Y-19600000D01*
D32*
X22450000Y-21805000D02*
X22450000Y-21800000D01*
D33*
X21650000Y-16000000D02*
X21900000Y-16000000D01*
D34*
X21700000Y-14150000D02*
X21800000Y-14150000D01*
D33*
X21900000Y-16000000D02*
X21925000Y-16000000D01*
X19300000Y-19600000D02*
X19350000Y-19550000D01*
D32*
X17550000Y-21805000D02*
X17550000Y-21800000D01*
D33*
X18800000Y-19600000D02*
X19300000Y-19600000D01*
X19350000Y-19450000D02*
X19300000Y-19400000D01*
D32*
X9050000Y-21350000D02*
X10100000Y-21350000D01*
D33*
X10100000Y-21200000D02*
X10700000Y-20600000D01*
D34*
X21900000Y-14050000D02*
X21900000Y-13650000D01*
D33*
X19350000Y-19200000D02*
X19400000Y-19150000D01*
X17300000Y-20600000D02*
X17550000Y-20850000D01*
X19300000Y-19350000D02*
X19350000Y-19300000D01*
X21550000Y-16100000D02*
X21650000Y-16000000D01*
D34*
X21800000Y-14150000D02*
X21900000Y-14050000D01*
%TO.N,J1.SBU1*%
D32*
X21250000Y-21805000D02*
X21250000Y-21800000D01*
%TO.N,CC2*%
X23650000Y-19200000D02*
X25500000Y-19200000D01*
X21750000Y-21100000D02*
X23650000Y-19200000D01*
X21750000Y-21805000D02*
X21750000Y-21800000D01*
X21750000Y-21800000D02*
X21750000Y-21100000D01*
%TO.N,J1.SBU2*%
X18250000Y-21805000D02*
X18250000Y-21800000D01*
%TO.N,3V3*%
D33*
X25550000Y-13600000D02*
X25550000Y-14200000D01*
X12050000Y-26050000D02*
X12050000Y-26100000D01*
X17100000Y-15700000D02*
X20200000Y-12600000D01*
X6900000Y-22450000D02*
X6900000Y-18300000D01*
X22800000Y-7700000D02*
X22800000Y-6400000D01*
X15350000Y-19250000D02*
X13500000Y-19250000D01*
X10150000Y-23650000D02*
X9800000Y-24000000D01*
X11350000Y-21350000D02*
X10150000Y-22550000D01*
X23100000Y-10250000D02*
X25550000Y-12700000D01*
X22200000Y-5800000D02*
X22100000Y-5800000D01*
X22100000Y-8400000D02*
X22800000Y-7700000D01*
X11400000Y-21350000D02*
X11350000Y-21350000D01*
X9900000Y-23900000D02*
X12050000Y-26050000D01*
X20700000Y-10250000D02*
X23100000Y-10250000D01*
X26900000Y-15700000D02*
X26900000Y-15675000D01*
X11550000Y-21200000D02*
X11400000Y-21350000D01*
X20200000Y-12600000D02*
X20200000Y-10750000D01*
X15800000Y-18800000D02*
X15800000Y-18700000D01*
X8450000Y-24000000D02*
X6900000Y-22450000D01*
X26900000Y-15550000D02*
X26900000Y-15700000D01*
X19800000Y-7500000D02*
X19800000Y-7475000D01*
X22100000Y-10250000D02*
X22100000Y-9400000D01*
X12650000Y-26800000D02*
X12800000Y-26800000D01*
X20000000Y-7500000D02*
X19800000Y-7500000D01*
X10150000Y-22550000D02*
X10150000Y-23650000D01*
X22800000Y-6400000D02*
X22200000Y-5800000D01*
X12100000Y-26150000D02*
X12100000Y-26250000D01*
X15800000Y-18700000D02*
X15850000Y-18650000D01*
X25550000Y-12700000D02*
X25550000Y-13600000D01*
X9800000Y-24000000D02*
X8450000Y-24000000D01*
X15500000Y-19100000D02*
X15350000Y-19250000D01*
X25550000Y-14200000D02*
X26900000Y-15550000D01*
X12050000Y-26100000D02*
X12100000Y-26150000D01*
X20200000Y-10750000D02*
X20700000Y-10250000D01*
X15500000Y-19100000D02*
X15800000Y-18800000D01*
X15850000Y-18650000D02*
X15850000Y-18600000D01*
X12100000Y-26250000D02*
X12650000Y-26800000D01*
X15850000Y-18600000D02*
X17100000Y-17350000D01*
%TO.N,BOOT*%
D32*
X17950000Y-13100000D02*
X18000000Y-13050000D01*
X18000000Y-13050000D02*
X18000000Y-12850000D01*
X17600000Y-14350000D02*
X17950000Y-14000000D01*
X20750000Y-9200000D02*
X20750000Y-7400000D01*
X20750000Y-7400000D02*
X20450000Y-7100000D01*
X19400000Y-6550000D02*
X17550000Y-4700000D01*
X18400000Y-12050000D02*
X18450000Y-12000000D01*
X20450000Y-7100000D02*
X19900000Y-6550000D01*
X18450000Y-11900000D02*
X18500000Y-11850000D01*
X15200000Y-16500000D02*
X17350000Y-14350000D01*
X18050000Y-12800000D02*
X18050000Y-12650000D01*
X20750000Y-6800000D02*
X22100000Y-6800000D01*
X18650000Y-11300000D02*
X20750000Y-9200000D01*
X18500000Y-11750000D02*
X18550000Y-11700000D01*
X18350000Y-12350000D02*
X18350000Y-12200000D01*
X18350000Y-12200000D02*
X18400000Y-12150000D01*
X17350000Y-14350000D02*
X17600000Y-14350000D01*
X18050000Y-12650000D02*
X18350000Y-12350000D01*
X18550000Y-11550000D02*
X18650000Y-11450000D01*
X18650000Y-11450000D02*
X18650000Y-11300000D01*
X18000000Y-12850000D02*
X18050000Y-12800000D01*
X19900000Y-6550000D02*
X19400000Y-6550000D01*
X17200000Y-3850000D02*
X17150000Y-3850000D01*
X18500000Y-11850000D02*
X18500000Y-11750000D01*
X18550000Y-11700000D02*
X18550000Y-11550000D01*
X18400000Y-12150000D02*
X18400000Y-12050000D01*
X17550000Y-4200000D02*
X17200000Y-3850000D01*
X20450000Y-7100000D02*
X20750000Y-6800000D01*
X18450000Y-12000000D02*
X18450000Y-11900000D01*
X17950000Y-14000000D02*
X17950000Y-13100000D01*
X17550000Y-4700000D02*
X17550000Y-4200000D01*
%TO.N,LED_A*%
X23500000Y-8900000D02*
X21300000Y-8900000D01*
X24500000Y-7900000D02*
X23500000Y-8900000D01*
%TO.N,LED*%
X19750000Y-9450000D02*
X17150000Y-9450000D01*
X20300000Y-8900000D02*
X19750000Y-9450000D01*
%TO.N,U1.NC*%
X13850000Y-2000000D02*
X13850000Y-1950000D01*
X15450000Y-12800000D02*
X15450000Y-13750000D01*
X15900000Y-2350000D02*
X14200000Y-2350000D01*
X14300000Y-13350000D02*
X13400000Y-13350000D01*
X16250000Y-2150000D02*
X16250000Y-1950000D01*
X14450000Y-13550000D02*
X14450000Y-13500000D01*
X17100000Y-10250000D02*
X15700000Y-11650000D01*
X16750000Y-3400000D02*
X16750000Y-8300000D01*
X15700000Y-11650000D02*
X15700000Y-11750000D01*
X13050000Y-13700000D02*
X13050000Y-13750000D01*
X16950000Y-3250000D02*
X16900000Y-3250000D01*
X16750000Y-8300000D02*
X17100000Y-8650000D01*
X13050000Y-13700000D02*
X12700000Y-13350000D01*
X16900000Y-3250000D02*
X16750000Y-3400000D01*
X12700000Y-1550000D02*
X11000000Y-1550000D01*
X13050000Y-1950000D02*
X12850000Y-1750000D01*
X12850000Y-1700000D02*
X12700000Y-1550000D01*
X14650000Y-13750000D02*
X14450000Y-13550000D01*
X11000000Y-1550000D02*
X10650000Y-1900000D01*
X17100000Y-10250000D02*
X17150000Y-10250000D01*
X12700000Y-13350000D02*
X11000000Y-13350000D01*
X10650000Y-13700000D02*
X10650000Y-13750000D01*
X16250000Y-2000000D02*
X15900000Y-2350000D01*
X17150000Y-3050000D02*
X16250000Y-2150000D01*
X16750000Y-9000000D02*
X16750000Y-9900000D01*
X17150000Y-3050000D02*
X16950000Y-3250000D01*
X17100000Y-8650000D02*
X16750000Y-9000000D01*
X11000000Y-13350000D02*
X10650000Y-13700000D01*
X14200000Y-2350000D02*
X13850000Y-2000000D01*
X10650000Y-1900000D02*
X10650000Y-1950000D01*
X12850000Y-1750000D02*
X12850000Y-1700000D01*
X14450000Y-13500000D02*
X14300000Y-13350000D01*
X17100000Y-8650000D02*
X17150000Y-8650000D01*
X16750000Y-9900000D02*
X17100000Y-10250000D01*
X13400000Y-13350000D02*
X13050000Y-13700000D01*
%TD*%
%TA.AperFunction,Conductor*%
%TO.N,GND*%
G36*
X20412677Y-17069300D02*
G01*
X20422826Y-17077088D01*
X22135148Y-18789408D01*
X22149500Y-18824056D01*
X22149500Y-18825942D01*
X22135148Y-18860590D01*
X20272413Y-20723325D01*
X20258990Y-20755728D01*
X20258990Y-20755730D01*
X20249500Y-20778643D01*
X20249500Y-20778644D01*
X20249500Y-20930500D01*
X20235148Y-20965148D01*
X20200500Y-20979500D01*
X20157710Y-20979500D01*
X20106525Y-20989681D01*
X20048471Y-21028471D01*
X20040742Y-21040040D01*
X20009559Y-21060876D01*
X19972777Y-21053559D01*
X19959258Y-21040040D01*
X19951528Y-21028471D01*
X19893474Y-20989681D01*
X19842289Y-20979500D01*
X19842284Y-20979500D01*
X19657716Y-20979500D01*
X19657710Y-20979500D01*
X19606525Y-20989681D01*
X19548471Y-21028471D01*
X19540742Y-21040040D01*
X19509559Y-21060876D01*
X19472777Y-21053559D01*
X19459258Y-21040040D01*
X19451528Y-21028471D01*
X19393474Y-20989681D01*
X19342289Y-20979500D01*
X19342284Y-20979500D01*
X19301636Y-20979500D01*
X19266988Y-20965148D01*
X19252636Y-20930500D01*
X19266988Y-20895852D01*
X19606748Y-20556092D01*
X19977588Y-20185252D01*
X19991009Y-20152848D01*
X20000500Y-20129936D01*
X20000500Y-19332635D01*
X20014852Y-19297987D01*
X20127585Y-19185254D01*
X20127587Y-19185252D01*
X20138237Y-19159540D01*
X20150500Y-19129936D01*
X20150500Y-18860254D01*
X20164852Y-18825606D01*
X20189939Y-18812196D01*
X20216888Y-18806836D01*
X20294786Y-18754786D01*
X20346836Y-18676888D01*
X20360500Y-18608196D01*
X20360500Y-18191804D01*
X20346836Y-18123112D01*
X20320109Y-18083112D01*
X20294786Y-18045213D01*
X20234922Y-18005214D01*
X20216888Y-17993164D01*
X20216887Y-17993163D01*
X20216886Y-17993163D01*
X20148199Y-17979500D01*
X20148196Y-17979500D01*
X19831804Y-17979500D01*
X19826738Y-17980507D01*
X19820044Y-17981839D01*
X19783262Y-17974521D01*
X19762427Y-17943338D01*
X19769745Y-17906556D01*
X19775833Y-17899137D01*
X20290460Y-17384511D01*
X20330021Y-17315988D01*
X20346324Y-17255147D01*
X20350500Y-17239563D01*
X20350500Y-17160437D01*
X20342826Y-17131800D01*
X20340848Y-17124418D01*
X20345742Y-17087237D01*
X20375494Y-17064406D01*
X20412677Y-17069300D01*
G37*
%TD.AperFunction*%
%TA.AperFunction,Conductor*%
G36*
X39585148Y-414852D02*
G01*
X39599500Y-449500D01*
X39599500Y-29550500D01*
X39585148Y-29585148D01*
X39550500Y-29599500D01*
X449500Y-29599500D01*
X414852Y-29585148D01*
X400500Y-29550500D01*
X400500Y-25920939D01*
X3399500Y-25920939D01*
X3399500Y-26079060D01*
X3440422Y-26231782D01*
X3440423Y-26231786D01*
X3519475Y-26368709D01*
X3519478Y-26368713D01*
X3519480Y-26368716D01*
X3631284Y-26480520D01*
X3631287Y-26480521D01*
X3631290Y-26480524D01*
X3768213Y-26559576D01*
X3768215Y-26559576D01*
X3768216Y-26559577D01*
X3888665Y-26591851D01*
X3920939Y-26600499D01*
X3920940Y-26600500D01*
X3920943Y-26600500D01*
X4079060Y-26600500D01*
X4079060Y-26600499D01*
X4231784Y-26559577D01*
X4255022Y-26546161D01*
X4368709Y-26480524D01*
X4368708Y-26480524D01*
X4368716Y-26480520D01*
X4480520Y-26368716D01*
X4559577Y-26231784D01*
X4600499Y-26079060D01*
X4600500Y-26079060D01*
X4600500Y-25920940D01*
X4600499Y-25920939D01*
X4559577Y-25768217D01*
X4559576Y-25768213D01*
X4480524Y-25631290D01*
X4480521Y-25631287D01*
X4480520Y-25631284D01*
X4368716Y-25519480D01*
X4368713Y-25519478D01*
X4368709Y-25519475D01*
X4231786Y-25440423D01*
X4231782Y-25440422D01*
X4079060Y-25399500D01*
X4079057Y-25399500D01*
X3920943Y-25399500D01*
X3920940Y-25399500D01*
X3768217Y-25440422D01*
X3768213Y-25440423D01*
X3631290Y-25519475D01*
X3631281Y-25519482D01*
X3519482Y-25631281D01*
X3519475Y-25631290D01*
X3440423Y-25768213D01*
X3440422Y-25768217D01*
X3399500Y-25920939D01*
X400500Y-25920939D01*
X400500Y-18151800D01*
X6479500Y-18151800D01*
X6479500Y-18468199D01*
X6493163Y-18536886D01*
X6545211Y-18614783D01*
X6545214Y-18614786D01*
X6577723Y-18636507D01*
X6598558Y-18667689D01*
X6599500Y-18677249D01*
X6599500Y-22489563D01*
X6618535Y-22560602D01*
X6619979Y-22565989D01*
X6633589Y-22589562D01*
X6633590Y-22589563D01*
X6659537Y-22634507D01*
X6659539Y-22634509D01*
X6659540Y-22634511D01*
X8209540Y-24184511D01*
X8265489Y-24240460D01*
X8334011Y-24280021D01*
X8369478Y-24289524D01*
X8410436Y-24300500D01*
X8410438Y-24300500D01*
X9839561Y-24300500D01*
X9839562Y-24300500D01*
X9840591Y-24300224D01*
X9841126Y-24300294D01*
X9842749Y-24300081D01*
X9842806Y-24300515D01*
X9877773Y-24305109D01*
X9887932Y-24312903D01*
X11752993Y-26177964D01*
X11765675Y-26199929D01*
X11769978Y-26215987D01*
X11769979Y-26215991D01*
X11780670Y-26234507D01*
X11780673Y-26234511D01*
X11792935Y-26255749D01*
X11799500Y-26280249D01*
X11799500Y-26289563D01*
X11819978Y-26365987D01*
X11819979Y-26365991D01*
X11839904Y-26400500D01*
X11839905Y-26400501D01*
X11859537Y-26434507D01*
X11859542Y-26434513D01*
X12384149Y-26959120D01*
X12397559Y-26984208D01*
X12403453Y-27013837D01*
X12456608Y-27093391D01*
X12509524Y-27128748D01*
X12536161Y-27146546D01*
X12536163Y-27146547D01*
X12606306Y-27160499D01*
X12606312Y-27160500D01*
X12993688Y-27160500D01*
X12994625Y-27160313D01*
X13063836Y-27146547D01*
X13063836Y-27146546D01*
X13063839Y-27146546D01*
X13143391Y-27093391D01*
X13196546Y-27013839D01*
X13210500Y-26943688D01*
X13210500Y-26616312D01*
X13199215Y-26559577D01*
X13196547Y-26546163D01*
X13143391Y-26466608D01*
X13063836Y-26413452D01*
X12993693Y-26399500D01*
X12993688Y-26399500D01*
X12694767Y-26399500D01*
X12660119Y-26385148D01*
X12414549Y-26139578D01*
X12401669Y-26113451D01*
X12401332Y-26113542D01*
X12400877Y-26111844D01*
X12400615Y-26111313D01*
X12400500Y-26110443D01*
X12400500Y-26110438D01*
X12394906Y-26089562D01*
X12380022Y-26034012D01*
X12340460Y-25965489D01*
X12340457Y-25965486D01*
X12339945Y-25964599D01*
X12335088Y-25952922D01*
X12330021Y-25934011D01*
X12322474Y-25920939D01*
X35399500Y-25920939D01*
X35399500Y-26079060D01*
X35440422Y-26231782D01*
X35440423Y-26231786D01*
X35519475Y-26368709D01*
X35519478Y-26368713D01*
X35519480Y-26368716D01*
X35631284Y-26480520D01*
X35631287Y-26480521D01*
X35631290Y-26480524D01*
X35768213Y-26559576D01*
X35768215Y-26559576D01*
X35768216Y-26559577D01*
X35888665Y-26591851D01*
X35920939Y-26600499D01*
X35920940Y-26600500D01*
X35920943Y-26600500D01*
X36079060Y-26600500D01*
X36079060Y-26600499D01*
X36231784Y-26559577D01*
X36255022Y-26546161D01*
X36368709Y-26480524D01*
X36368708Y-26480524D01*
X36368716Y-26480520D01*
X36480520Y-26368716D01*
X36559577Y-26231784D01*
X36600499Y-26079060D01*
X36600500Y-26079060D01*
X36600500Y-25920940D01*
X36600499Y-25920939D01*
X36559577Y-25768217D01*
X36559576Y-25768213D01*
X36480524Y-25631290D01*
X36480521Y-25631287D01*
X36480520Y-25631284D01*
X36368716Y-25519480D01*
X36368713Y-25519478D01*
X36368709Y-25519475D01*
X36231786Y-25440423D01*
X36231782Y-25440422D01*
X36079060Y-25399500D01*
X36079057Y-25399500D01*
X35920943Y-25399500D01*
X35920940Y-25399500D01*
X35768217Y-25440422D01*
X35768213Y-25440423D01*
X35631290Y-25519475D01*
X35631281Y-25519482D01*
X35519482Y-25631281D01*
X35519475Y-25631290D01*
X35440423Y-25768213D01*
X35440422Y-25768217D01*
X35399500Y-25920939D01*
X12322474Y-25920939D01*
X12290460Y-25865489D01*
X12234511Y-25809540D01*
X10359619Y-23934648D01*
X10345267Y-23900000D01*
X10359619Y-23865352D01*
X10390459Y-23834512D01*
X10390460Y-23834511D01*
X10430022Y-23765988D01*
X10450499Y-23689565D01*
X10450500Y-23689565D01*
X10450500Y-23075322D01*
X10574500Y-23075322D01*
X10574500Y-23424677D01*
X10589033Y-23497739D01*
X10644398Y-23580601D01*
X10689054Y-23610438D01*
X10727260Y-23635966D01*
X10800326Y-23650500D01*
X11874674Y-23650500D01*
X11947740Y-23635966D01*
X12030601Y-23580601D01*
X12085966Y-23497740D01*
X12100500Y-23424674D01*
X12100500Y-23193978D01*
X16684500Y-23193978D01*
X16684500Y-23306021D01*
X16713496Y-23414235D01*
X16713497Y-23414239D01*
X16761707Y-23497739D01*
X16769515Y-23511263D01*
X16848737Y-23590485D01*
X16883297Y-23610438D01*
X16945760Y-23646502D01*
X16945762Y-23646502D01*
X16945763Y-23646503D01*
X17031111Y-23669371D01*
X17053978Y-23675499D01*
X17053979Y-23675500D01*
X17053982Y-23675500D01*
X17166021Y-23675500D01*
X17166021Y-23675499D01*
X17274237Y-23646503D01*
X17371263Y-23590485D01*
X17450485Y-23511263D01*
X17506503Y-23414237D01*
X17535499Y-23306021D01*
X17535500Y-23306021D01*
X17535500Y-23193979D01*
X17535499Y-23193978D01*
X22464500Y-23193978D01*
X22464500Y-23306021D01*
X22493496Y-23414235D01*
X22493497Y-23414239D01*
X22541707Y-23497739D01*
X22549515Y-23511263D01*
X22628737Y-23590485D01*
X22663297Y-23610438D01*
X22725760Y-23646502D01*
X22725762Y-23646502D01*
X22725763Y-23646503D01*
X22811111Y-23669371D01*
X22833978Y-23675499D01*
X22833979Y-23675500D01*
X22833982Y-23675500D01*
X22946021Y-23675500D01*
X22946021Y-23675499D01*
X23054237Y-23646503D01*
X23151263Y-23590485D01*
X23230485Y-23511263D01*
X23286503Y-23414237D01*
X23315499Y-23306021D01*
X23315500Y-23306021D01*
X23315500Y-23193979D01*
X23315499Y-23193978D01*
X23286503Y-23085764D01*
X23286502Y-23085760D01*
X23250988Y-23024249D01*
X23230485Y-22988737D01*
X23151263Y-22909515D01*
X23132006Y-22898397D01*
X23054239Y-22853497D01*
X23054235Y-22853496D01*
X22946021Y-22824500D01*
X22946018Y-22824500D01*
X22833982Y-22824500D01*
X22833979Y-22824500D01*
X22725764Y-22853496D01*
X22725760Y-22853497D01*
X22628736Y-22909515D01*
X22628736Y-22909516D01*
X22549516Y-22988736D01*
X22549515Y-22988736D01*
X22493497Y-23085760D01*
X22493496Y-23085764D01*
X22464500Y-23193978D01*
X17535499Y-23193978D01*
X17506503Y-23085764D01*
X17506502Y-23085760D01*
X17470988Y-23024249D01*
X17450485Y-22988737D01*
X17371263Y-22909515D01*
X17352006Y-22898397D01*
X17274239Y-22853497D01*
X17274235Y-22853496D01*
X17166021Y-22824500D01*
X17166018Y-22824500D01*
X17053982Y-22824500D01*
X17053979Y-22824500D01*
X16945764Y-22853496D01*
X16945760Y-22853497D01*
X16848736Y-22909515D01*
X16848736Y-22909516D01*
X16769516Y-22988736D01*
X16769515Y-22988736D01*
X16713497Y-23085760D01*
X16713496Y-23085764D01*
X16684500Y-23193978D01*
X12100500Y-23193978D01*
X12100500Y-23075326D01*
X12085966Y-23002260D01*
X12076930Y-22988736D01*
X12030601Y-22919398D01*
X11947739Y-22864033D01*
X11874677Y-22849500D01*
X11874674Y-22849500D01*
X10800326Y-22849500D01*
X10800322Y-22849500D01*
X10727260Y-22864033D01*
X10644398Y-22919398D01*
X10589033Y-23002260D01*
X10574500Y-23075322D01*
X10450500Y-23075322D01*
X10450500Y-22694767D01*
X10464852Y-22660119D01*
X11360119Y-21764852D01*
X11394767Y-21750500D01*
X11874674Y-21750500D01*
X11947740Y-21735966D01*
X12030601Y-21680601D01*
X12085966Y-21597740D01*
X12100500Y-21524674D01*
X12100500Y-21175326D01*
X12085966Y-21102260D01*
X12053426Y-21053559D01*
X12030602Y-21019399D01*
X11986964Y-20990242D01*
X11966129Y-20959060D01*
X11973445Y-20922277D01*
X12004627Y-20901442D01*
X12014187Y-20900500D01*
X17155233Y-20900500D01*
X17189881Y-20914852D01*
X17240140Y-20965111D01*
X17254492Y-20999759D01*
X17240140Y-21034407D01*
X17232715Y-21040501D01*
X17219401Y-21049396D01*
X17219398Y-21049399D01*
X17164033Y-21132261D01*
X17149500Y-21205322D01*
X17149500Y-22404677D01*
X17164033Y-22477739D01*
X17219398Y-22560601D01*
X17262744Y-22589563D01*
X17302260Y-22615966D01*
X17375326Y-22630500D01*
X17724674Y-22630500D01*
X17797740Y-22615966D01*
X17880601Y-22560601D01*
X17920040Y-22501574D01*
X17951220Y-22480740D01*
X17988003Y-22488055D01*
X18008839Y-22519237D01*
X18009682Y-22523475D01*
X18048471Y-22581528D01*
X18087085Y-22607329D01*
X18106523Y-22620317D01*
X18106525Y-22620318D01*
X18157710Y-22630499D01*
X18157716Y-22630500D01*
X18342284Y-22630500D01*
X18342969Y-22630363D01*
X18393474Y-22620318D01*
X18393474Y-22620317D01*
X18393477Y-22620317D01*
X18451528Y-22581528D01*
X18459258Y-22569959D01*
X18490439Y-22549124D01*
X18527222Y-22556439D01*
X18540741Y-22569958D01*
X18548472Y-22581528D01*
X18606523Y-22620317D01*
X18606525Y-22620318D01*
X18657710Y-22630499D01*
X18657716Y-22630500D01*
X18842284Y-22630500D01*
X18842969Y-22630363D01*
X18893474Y-22620318D01*
X18893474Y-22620317D01*
X18893477Y-22620317D01*
X18951528Y-22581528D01*
X18959258Y-22569959D01*
X18990439Y-22549124D01*
X19027222Y-22556439D01*
X19040741Y-22569958D01*
X19048472Y-22581528D01*
X19106523Y-22620317D01*
X19106525Y-22620318D01*
X19157710Y-22630499D01*
X19157716Y-22630500D01*
X19342284Y-22630500D01*
X19342969Y-22630363D01*
X19393474Y-22620318D01*
X19393474Y-22620317D01*
X19393477Y-22620317D01*
X19451528Y-22581528D01*
X19459258Y-22569959D01*
X19490439Y-22549124D01*
X19527222Y-22556439D01*
X19540741Y-22569958D01*
X19548472Y-22581528D01*
X19606523Y-22620317D01*
X19606525Y-22620318D01*
X19657710Y-22630499D01*
X19657716Y-22630500D01*
X19842284Y-22630500D01*
X19842969Y-22630363D01*
X19893474Y-22620318D01*
X19893474Y-22620317D01*
X19893477Y-22620317D01*
X19951528Y-22581528D01*
X19959258Y-22569959D01*
X19990439Y-22549124D01*
X20027222Y-22556439D01*
X20040741Y-22569958D01*
X20048472Y-22581528D01*
X20106523Y-22620317D01*
X20106525Y-22620318D01*
X20157710Y-22630499D01*
X20157716Y-22630500D01*
X20342284Y-22630500D01*
X20342969Y-22630363D01*
X20393474Y-22620318D01*
X20393474Y-22620317D01*
X20393477Y-22620317D01*
X20451528Y-22581528D01*
X20459258Y-22569959D01*
X20490439Y-22549124D01*
X20527222Y-22556439D01*
X20540741Y-22569958D01*
X20548472Y-22581528D01*
X20606523Y-22620317D01*
X20606525Y-22620318D01*
X20657710Y-22630499D01*
X20657716Y-22630500D01*
X20842284Y-22630500D01*
X20842969Y-22630363D01*
X20893474Y-22620318D01*
X20893474Y-22620317D01*
X20893477Y-22620317D01*
X20951528Y-22581528D01*
X20959258Y-22569959D01*
X20990439Y-22549124D01*
X21027222Y-22556439D01*
X21040741Y-22569958D01*
X21048472Y-22581528D01*
X21106523Y-22620317D01*
X21106525Y-22620318D01*
X21157710Y-22630499D01*
X21157716Y-22630500D01*
X21342284Y-22630500D01*
X21342969Y-22630363D01*
X21393474Y-22620318D01*
X21393474Y-22620317D01*
X21393477Y-22620317D01*
X21451528Y-22581528D01*
X21459258Y-22569959D01*
X21490439Y-22549124D01*
X21527222Y-22556439D01*
X21540741Y-22569958D01*
X21548472Y-22581528D01*
X21606523Y-22620317D01*
X21606525Y-22620318D01*
X21657710Y-22630499D01*
X21657716Y-22630500D01*
X21842284Y-22630500D01*
X21842969Y-22630363D01*
X21893474Y-22620318D01*
X21893474Y-22620317D01*
X21893477Y-22620317D01*
X21951528Y-22581528D01*
X21990317Y-22523477D01*
X21991159Y-22519241D01*
X22011992Y-22488058D01*
X22048774Y-22480739D01*
X22079958Y-22501572D01*
X22079960Y-22501576D01*
X22119398Y-22560601D01*
X22162744Y-22589563D01*
X22202260Y-22615966D01*
X22275326Y-22630500D01*
X22624674Y-22630500D01*
X22697740Y-22615966D01*
X22780601Y-22560601D01*
X22835966Y-22477740D01*
X22850500Y-22404674D01*
X22850500Y-21205326D01*
X22835966Y-21132260D01*
X22803728Y-21084011D01*
X22780601Y-21049398D01*
X22697739Y-20994033D01*
X22693280Y-20992186D01*
X22693656Y-20991277D01*
X22666616Y-20973211D01*
X22659298Y-20936429D01*
X22662084Y-20927243D01*
X22675500Y-20894855D01*
X22675500Y-20805145D01*
X22641170Y-20722264D01*
X22641169Y-20722263D01*
X22641168Y-20722261D01*
X22577739Y-20658832D01*
X22577737Y-20658831D01*
X22577736Y-20658830D01*
X22522643Y-20636010D01*
X22496125Y-20609491D01*
X22496125Y-20571988D01*
X22506745Y-20556094D01*
X23697987Y-19364851D01*
X23732635Y-19350500D01*
X25070500Y-19350500D01*
X25105148Y-19364852D01*
X25119500Y-19399500D01*
X25119500Y-19408199D01*
X25133163Y-19476886D01*
X25185213Y-19554786D01*
X25224163Y-19580811D01*
X25263112Y-19606836D01*
X25331804Y-19620500D01*
X25648196Y-19620500D01*
X25716888Y-19606836D01*
X25794786Y-19554786D01*
X25846836Y-19476888D01*
X25860500Y-19408196D01*
X25860500Y-18991804D01*
X25846836Y-18923112D01*
X25805060Y-18860590D01*
X25794786Y-18845213D01*
X25732746Y-18803760D01*
X25716888Y-18793164D01*
X25716887Y-18793163D01*
X25716886Y-18793163D01*
X25648199Y-18779500D01*
X25648196Y-18779500D01*
X25331804Y-18779500D01*
X25331800Y-18779500D01*
X25263113Y-18793163D01*
X25185213Y-18845213D01*
X25133163Y-18923113D01*
X25119500Y-18991800D01*
X25119500Y-19000500D01*
X25105148Y-19035148D01*
X25070500Y-19049500D01*
X23620062Y-19049500D01*
X23596939Y-19059079D01*
X23596937Y-19059080D01*
X23564750Y-19072411D01*
X23564745Y-19072414D01*
X21668156Y-20969002D01*
X21643069Y-20982412D01*
X21606523Y-20989682D01*
X21548471Y-21028471D01*
X21540742Y-21040040D01*
X21509559Y-21060876D01*
X21472777Y-21053559D01*
X21459258Y-21040040D01*
X21451528Y-21028471D01*
X21393474Y-20989681D01*
X21342289Y-20979500D01*
X21342284Y-20979500D01*
X21157716Y-20979500D01*
X21157710Y-20979500D01*
X21106525Y-20989681D01*
X21048471Y-21028471D01*
X21040742Y-21040040D01*
X21009559Y-21060876D01*
X20972777Y-21053559D01*
X20959258Y-21040040D01*
X20951528Y-21028471D01*
X20893474Y-20989681D01*
X20842289Y-20979500D01*
X20839888Y-20979264D01*
X20839989Y-20978229D01*
X20808408Y-20965148D01*
X20794056Y-20930500D01*
X20808408Y-20895852D01*
X22627586Y-19076674D01*
X22627588Y-19076672D01*
X22642587Y-19040460D01*
X22650500Y-19021357D01*
X22650500Y-18628643D01*
X22627587Y-18573328D01*
X22627587Y-18573327D01*
X22574408Y-18520148D01*
X22560056Y-18485500D01*
X22574408Y-18450852D01*
X22609056Y-18436500D01*
X22848688Y-18436500D01*
X22849625Y-18436313D01*
X22918836Y-18422547D01*
X22918836Y-18422546D01*
X22918839Y-18422546D01*
X22998391Y-18369391D01*
X23051546Y-18289839D01*
X23065500Y-18219688D01*
X23065500Y-17832312D01*
X23061149Y-17810436D01*
X23051547Y-17762163D01*
X22998391Y-17682608D01*
X22938860Y-17642832D01*
X22918839Y-17629454D01*
X22918838Y-17629453D01*
X22918837Y-17629453D01*
X22889940Y-17623705D01*
X22858758Y-17602870D01*
X22850500Y-17575647D01*
X22850500Y-15032635D01*
X22864852Y-14997987D01*
X23427586Y-14435253D01*
X23427587Y-14435252D01*
X23436080Y-14414748D01*
X23450500Y-14379936D01*
X23450500Y-12920064D01*
X23437647Y-12889034D01*
X23427588Y-12864749D01*
X23427586Y-12864747D01*
X23427585Y-12864745D01*
X23185253Y-12622412D01*
X23185252Y-12622411D01*
X23152459Y-12608829D01*
X23152458Y-12608829D01*
X23129937Y-12599500D01*
X23129936Y-12599500D01*
X20670064Y-12599500D01*
X20670062Y-12599500D01*
X20647542Y-12608829D01*
X20647541Y-12608829D01*
X20614753Y-12622409D01*
X20614745Y-12622414D01*
X20584148Y-12653012D01*
X20549500Y-12667364D01*
X20514852Y-12653012D01*
X20500500Y-12618364D01*
X20500500Y-12039186D01*
X20514852Y-12004538D01*
X20549500Y-11990186D01*
X20584148Y-12004538D01*
X20590238Y-12011958D01*
X20619399Y-12055601D01*
X20619400Y-12055602D01*
X20682835Y-12097987D01*
X20702260Y-12110966D01*
X20775326Y-12125500D01*
X21124674Y-12125500D01*
X21197740Y-12110966D01*
X21280601Y-12055601D01*
X21335966Y-11972740D01*
X21350500Y-11899674D01*
X21350500Y-10825326D01*
X21335966Y-10752260D01*
X21325106Y-10736007D01*
X21280602Y-10669399D01*
X21236964Y-10640242D01*
X21216129Y-10609060D01*
X21223445Y-10572277D01*
X21254627Y-10551442D01*
X21264187Y-10550500D01*
X22060438Y-10550500D01*
X22139562Y-10550500D01*
X22535813Y-10550500D01*
X22570461Y-10564852D01*
X22584813Y-10599500D01*
X22570461Y-10634148D01*
X22563036Y-10640242D01*
X22519397Y-10669399D01*
X22464033Y-10752260D01*
X22449500Y-10825322D01*
X22449500Y-11899677D01*
X22464033Y-11972739D01*
X22519398Y-12055601D01*
X22582835Y-12097987D01*
X22602260Y-12110966D01*
X22675326Y-12125500D01*
X23024674Y-12125500D01*
X23097740Y-12110966D01*
X23180601Y-12055601D01*
X23235966Y-11972740D01*
X23250500Y-11899674D01*
X23250500Y-10943767D01*
X23264852Y-10909119D01*
X23299500Y-10894767D01*
X23334148Y-10909119D01*
X25235148Y-12810119D01*
X25249500Y-12844767D01*
X25249500Y-14239563D01*
X25269978Y-14315987D01*
X25269979Y-14315991D01*
X25306897Y-14379932D01*
X25306897Y-14379935D01*
X25306898Y-14379935D01*
X25306899Y-14379936D01*
X25309540Y-14384511D01*
X25309542Y-14384514D01*
X26310148Y-15385119D01*
X26324500Y-15419767D01*
X26324500Y-15938132D01*
X26324501Y-15938138D01*
X26330740Y-15985545D01*
X26379253Y-16089579D01*
X26379254Y-16089581D01*
X26460418Y-16170745D01*
X26460420Y-16170746D01*
X26460421Y-16170747D01*
X26564455Y-16219259D01*
X26611861Y-16225500D01*
X27188138Y-16225499D01*
X27235545Y-16219259D01*
X27339579Y-16170747D01*
X27420747Y-16089579D01*
X27469259Y-15985545D01*
X27475500Y-15938139D01*
X27475499Y-15411862D01*
X27469259Y-15364455D01*
X27420747Y-15260421D01*
X27420746Y-15260420D01*
X27420745Y-15260418D01*
X27339581Y-15179254D01*
X27339579Y-15179253D01*
X27235547Y-15130742D01*
X27235546Y-15130741D01*
X27226063Y-15129492D01*
X27188139Y-15124500D01*
X27188135Y-15124500D01*
X26919767Y-15124500D01*
X26885119Y-15110148D01*
X25864852Y-14089881D01*
X25850500Y-14055233D01*
X25850500Y-12660436D01*
X25839682Y-12620065D01*
X25830021Y-12584011D01*
X25830020Y-12584009D01*
X25830020Y-12584008D01*
X25790459Y-12515488D01*
X23284511Y-10009540D01*
X23215990Y-9969979D01*
X23139564Y-9949500D01*
X23139562Y-9949500D01*
X22449500Y-9949500D01*
X22414852Y-9935148D01*
X22400500Y-9900500D01*
X22400500Y-9360436D01*
X22384171Y-9299500D01*
X22380021Y-9284011D01*
X22380020Y-9284009D01*
X22380020Y-9284008D01*
X22340459Y-9215488D01*
X22284511Y-9159540D01*
X22254018Y-9141935D01*
X22231188Y-9112182D01*
X22236083Y-9075000D01*
X22265836Y-9052170D01*
X22278518Y-9050500D01*
X23529934Y-9050500D01*
X23529936Y-9050500D01*
X23555039Y-9040102D01*
X23555040Y-9040102D01*
X23585252Y-9027588D01*
X23585253Y-9027587D01*
X23698094Y-8914746D01*
X24140312Y-8472526D01*
X24174959Y-8458175D01*
X24195666Y-8462766D01*
X24209847Y-8469379D01*
X24256341Y-8475500D01*
X24768658Y-8475499D01*
X24815153Y-8469379D01*
X24917189Y-8421799D01*
X24996799Y-8342189D01*
X25044379Y-8240153D01*
X25050500Y-8193659D01*
X25050499Y-7606342D01*
X25044379Y-7559847D01*
X25044378Y-7559845D01*
X25022191Y-7512266D01*
X24996799Y-7457811D01*
X24996798Y-7457810D01*
X24996797Y-7457808D01*
X24917191Y-7378202D01*
X24917189Y-7378201D01*
X24815156Y-7330622D01*
X24815154Y-7330621D01*
X24805854Y-7329396D01*
X24768659Y-7324500D01*
X24768655Y-7324500D01*
X24256345Y-7324500D01*
X24256340Y-7324501D01*
X24209846Y-7330620D01*
X24107810Y-7378201D01*
X24107808Y-7378202D01*
X24028202Y-7457808D01*
X24028201Y-7457810D01*
X23980622Y-7559843D01*
X23980621Y-7559845D01*
X23980621Y-7559846D01*
X23980621Y-7559847D01*
X23974501Y-7606340D01*
X23974500Y-7606344D01*
X23974500Y-8192363D01*
X23960148Y-8227011D01*
X23452012Y-8735148D01*
X23417364Y-8749500D01*
X22278518Y-8749500D01*
X22243870Y-8735148D01*
X22229518Y-8700500D01*
X22243870Y-8665852D01*
X22254019Y-8658064D01*
X22284511Y-8640460D01*
X23040460Y-7884511D01*
X23048801Y-7870064D01*
X23080021Y-7815989D01*
X23100500Y-7739562D01*
X23100500Y-6360438D01*
X23100500Y-6360436D01*
X23091843Y-6328134D01*
X23080021Y-6284011D01*
X23080020Y-6284009D01*
X23080020Y-6284008D01*
X23040459Y-6215488D01*
X22534852Y-5709881D01*
X22520500Y-5675233D01*
X22520500Y-5631804D01*
X22520499Y-5631800D01*
X22506836Y-5563113D01*
X22506836Y-5563112D01*
X22480811Y-5524163D01*
X22454786Y-5485213D01*
X22396493Y-5446264D01*
X22376888Y-5433164D01*
X22376887Y-5433163D01*
X22376886Y-5433163D01*
X22308199Y-5419500D01*
X22308196Y-5419500D01*
X21891804Y-5419500D01*
X21891800Y-5419500D01*
X21823113Y-5433163D01*
X21745213Y-5485213D01*
X21693163Y-5563113D01*
X21679500Y-5631800D01*
X21679500Y-5948199D01*
X21693163Y-6016886D01*
X21745213Y-6094786D01*
X21784163Y-6120811D01*
X21823112Y-6146836D01*
X21891804Y-6160500D01*
X22115233Y-6160500D01*
X22149881Y-6174852D01*
X22330881Y-6355852D01*
X22345233Y-6390500D01*
X22330881Y-6425148D01*
X22296233Y-6439500D01*
X21891800Y-6439500D01*
X21823113Y-6453163D01*
X21745213Y-6505213D01*
X21693163Y-6583113D01*
X21687803Y-6610060D01*
X21666968Y-6641242D01*
X21639745Y-6649500D01*
X20720062Y-6649500D01*
X20680950Y-6665702D01*
X20664746Y-6672413D01*
X20484647Y-6852512D01*
X20449999Y-6866864D01*
X20415351Y-6852512D01*
X19985254Y-6422413D01*
X19985252Y-6422412D01*
X19952848Y-6408990D01*
X19929936Y-6399500D01*
X19482635Y-6399500D01*
X19447987Y-6385148D01*
X17714852Y-4652012D01*
X17700500Y-4617364D01*
X17700500Y-4170064D01*
X17689043Y-4142407D01*
X17689042Y-4142404D01*
X17677588Y-4114749D01*
X17483779Y-3920939D01*
X35399500Y-3920939D01*
X35399500Y-4079060D01*
X35440422Y-4231782D01*
X35440423Y-4231786D01*
X35519475Y-4368709D01*
X35519478Y-4368713D01*
X35519480Y-4368716D01*
X35631284Y-4480520D01*
X35631287Y-4480521D01*
X35631290Y-4480524D01*
X35768213Y-4559576D01*
X35768215Y-4559576D01*
X35768216Y-4559577D01*
X35888665Y-4591851D01*
X35920939Y-4600499D01*
X35920940Y-4600500D01*
X35920943Y-4600500D01*
X36079060Y-4600500D01*
X36079060Y-4600499D01*
X36231784Y-4559577D01*
X36368716Y-4480520D01*
X36480520Y-4368716D01*
X36559577Y-4231784D01*
X36600499Y-4079060D01*
X36600500Y-4079060D01*
X36600500Y-3920940D01*
X36600499Y-3920939D01*
X36559577Y-3768217D01*
X36559576Y-3768213D01*
X36480524Y-3631290D01*
X36480521Y-3631287D01*
X36480520Y-3631284D01*
X36368716Y-3519480D01*
X36368713Y-3519478D01*
X36368709Y-3519475D01*
X36231786Y-3440423D01*
X36231782Y-3440422D01*
X36079060Y-3399500D01*
X36079057Y-3399500D01*
X35920943Y-3399500D01*
X35920940Y-3399500D01*
X35768217Y-3440422D01*
X35768213Y-3440423D01*
X35631290Y-3519475D01*
X35631281Y-3519482D01*
X35519482Y-3631281D01*
X35519475Y-3631290D01*
X35440423Y-3768213D01*
X35440422Y-3768217D01*
X35399500Y-3920939D01*
X17483779Y-3920939D01*
X17464851Y-3902011D01*
X17450499Y-3867363D01*
X17450499Y-3459903D01*
X17450500Y-3459899D01*
X17450499Y-2640102D01*
X17444669Y-2610787D01*
X17444667Y-2610784D01*
X17444667Y-2610783D01*
X17422457Y-2577543D01*
X17389212Y-2555330D01*
X17359901Y-2549500D01*
X16940105Y-2549500D01*
X16940104Y-2549500D01*
X16940102Y-2549501D01*
X16910787Y-2555331D01*
X16910785Y-2555331D01*
X16906054Y-2556273D01*
X16905857Y-2555285D01*
X16873392Y-2555282D01*
X16857501Y-2544662D01*
X16644180Y-2331341D01*
X16629828Y-2296693D01*
X16644180Y-2262045D01*
X16669268Y-2248635D01*
X16689213Y-2244669D01*
X16722457Y-2222457D01*
X16744669Y-2189213D01*
X16750500Y-2159899D01*
X16750499Y-1740102D01*
X16744669Y-1710787D01*
X16744667Y-1710784D01*
X16744667Y-1710783D01*
X16722457Y-1677543D01*
X16689212Y-1655330D01*
X16659904Y-1649500D01*
X16659899Y-1649500D01*
X15859903Y-1649500D01*
X15859899Y-1649500D01*
X15059903Y-1649500D01*
X15059899Y-1649500D01*
X14259903Y-1649500D01*
X14259899Y-1649500D01*
X13459903Y-1649500D01*
X13459899Y-1649500D01*
X13024723Y-1649500D01*
X12990075Y-1635148D01*
X12979454Y-1619254D01*
X12977587Y-1614748D01*
X12785254Y-1422413D01*
X12785252Y-1422412D01*
X12752848Y-1408990D01*
X12729936Y-1399500D01*
X10970064Y-1399500D01*
X10942406Y-1410955D01*
X10942406Y-1410956D01*
X10914749Y-1422412D01*
X10914747Y-1422413D01*
X10914745Y-1422414D01*
X10702011Y-1635148D01*
X10667363Y-1649500D01*
X7840105Y-1649500D01*
X7840104Y-1649500D01*
X7840102Y-1649501D01*
X7810787Y-1655331D01*
X7810786Y-1655331D01*
X7810784Y-1655332D01*
X7810783Y-1655332D01*
X7777543Y-1677542D01*
X7755330Y-1710786D01*
X7755330Y-1710787D01*
X7749500Y-1740095D01*
X7749500Y-2159894D01*
X7749501Y-2159898D01*
X7755331Y-2189213D01*
X7755331Y-2189214D01*
X7755332Y-2189215D01*
X7755332Y-2189216D01*
X7777542Y-2222456D01*
X7777543Y-2222457D01*
X7810787Y-2244669D01*
X7840101Y-2250500D01*
X8640096Y-2250499D01*
X8640101Y-2250500D01*
X9440096Y-2250499D01*
X9440101Y-2250500D01*
X10240096Y-2250499D01*
X10240101Y-2250500D01*
X11040096Y-2250499D01*
X11040101Y-2250500D01*
X11840096Y-2250499D01*
X11840101Y-2250500D01*
X12640096Y-2250499D01*
X12640101Y-2250500D01*
X13440096Y-2250499D01*
X13440101Y-2250500D01*
X13867363Y-2250499D01*
X13902011Y-2264851D01*
X14114749Y-2477588D01*
X14142406Y-2489043D01*
X14170064Y-2500500D01*
X14170065Y-2500500D01*
X15929934Y-2500500D01*
X15929936Y-2500500D01*
X15952848Y-2491009D01*
X15985252Y-2477588D01*
X16140352Y-2322486D01*
X16174999Y-2308135D01*
X16209645Y-2322485D01*
X16209647Y-2322486D01*
X16209647Y-2322487D01*
X16835148Y-2947987D01*
X16849500Y-2982635D01*
X16849500Y-3075277D01*
X16835148Y-3109925D01*
X16819255Y-3120546D01*
X16814746Y-3122413D01*
X16814745Y-3122415D01*
X16622414Y-3314745D01*
X16622411Y-3314750D01*
X16613921Y-3335250D01*
X16613920Y-3335252D01*
X16599500Y-3370062D01*
X16599500Y-8329936D01*
X16604574Y-8342183D01*
X16604575Y-8342189D01*
X16604576Y-8342189D01*
X16622412Y-8385253D01*
X16835148Y-8597987D01*
X16849500Y-8632635D01*
X16849500Y-8667363D01*
X16835148Y-8702011D01*
X16622413Y-8914746D01*
X16608990Y-8947149D01*
X16608990Y-8947151D01*
X16599500Y-8970064D01*
X16599500Y-8970065D01*
X16599500Y-9929935D01*
X16605602Y-9944666D01*
X16605603Y-9944671D01*
X16622409Y-9985247D01*
X16622414Y-9985255D01*
X16835148Y-10197987D01*
X16849500Y-10232635D01*
X16849500Y-10267363D01*
X16835148Y-10302011D01*
X15589510Y-11547648D01*
X15573623Y-11558266D01*
X15572269Y-11558826D01*
X15572261Y-11558832D01*
X15508831Y-11622261D01*
X15508830Y-11622263D01*
X15474501Y-11705141D01*
X15474500Y-11705143D01*
X15474500Y-11705145D01*
X15474500Y-11794855D01*
X15474500Y-11794857D01*
X15474501Y-11794858D01*
X15508830Y-11877736D01*
X15508832Y-11877739D01*
X15572261Y-11941168D01*
X15572263Y-11941169D01*
X15572264Y-11941170D01*
X15655145Y-11975500D01*
X15655147Y-11975500D01*
X15744853Y-11975500D01*
X15744855Y-11975500D01*
X15827736Y-11941170D01*
X15827737Y-11941168D01*
X15827739Y-11941168D01*
X15891168Y-11877739D01*
X15891168Y-11877737D01*
X15891170Y-11877736D01*
X15925500Y-11794855D01*
X15925500Y-11705145D01*
X15918169Y-11687446D01*
X15918169Y-11649944D01*
X15928788Y-11634050D01*
X16122743Y-11440095D01*
X16849500Y-11440095D01*
X16849500Y-13059894D01*
X16849501Y-13059898D01*
X16855331Y-13089213D01*
X16855332Y-13089214D01*
X16855332Y-13089216D01*
X16871451Y-13113340D01*
X16877543Y-13122457D01*
X16910787Y-13144669D01*
X16940101Y-13150500D01*
X17359898Y-13150499D01*
X17389213Y-13144669D01*
X17422457Y-13122457D01*
X17444669Y-13089213D01*
X17450500Y-13059899D01*
X17450499Y-12259903D01*
X17450500Y-12259899D01*
X17450499Y-11440102D01*
X17444669Y-11410787D01*
X17444667Y-11410784D01*
X17444667Y-11410783D01*
X17422457Y-11377543D01*
X17389212Y-11355330D01*
X17359901Y-11349500D01*
X16940105Y-11349500D01*
X16940104Y-11349500D01*
X16940102Y-11349501D01*
X16910787Y-11355331D01*
X16910786Y-11355331D01*
X16910784Y-11355332D01*
X16910783Y-11355332D01*
X16877543Y-11377542D01*
X16855330Y-11410786D01*
X16855330Y-11410787D01*
X16849500Y-11440095D01*
X16122743Y-11440095D01*
X16826832Y-10736006D01*
X16861479Y-10721655D01*
X16888702Y-10729913D01*
X16910787Y-10744669D01*
X16940101Y-10750500D01*
X17359898Y-10750499D01*
X17389213Y-10744669D01*
X17422457Y-10722457D01*
X17444669Y-10689213D01*
X17450500Y-10659899D01*
X17450499Y-9862911D01*
X17450500Y-9862895D01*
X17450500Y-9649500D01*
X17464852Y-9614852D01*
X17499500Y-9600500D01*
X19779934Y-9600500D01*
X19779936Y-9600500D01*
X19802848Y-9591009D01*
X19835252Y-9577588D01*
X20080367Y-9332471D01*
X20115014Y-9318120D01*
X20124575Y-9319062D01*
X20131804Y-9320500D01*
X20298365Y-9320500D01*
X20333013Y-9334852D01*
X20347365Y-9369500D01*
X20333013Y-9404148D01*
X18522413Y-11214745D01*
X18522413Y-11214746D01*
X18508990Y-11247149D01*
X18508990Y-11247151D01*
X18499500Y-11270064D01*
X18499500Y-11270065D01*
X18499500Y-11367364D01*
X18485148Y-11402012D01*
X18422414Y-11464745D01*
X18422411Y-11464750D01*
X18411918Y-11490085D01*
X18411917Y-11490087D01*
X18399500Y-11520062D01*
X18399500Y-11617363D01*
X18385148Y-11652011D01*
X18372413Y-11664746D01*
X18358990Y-11697149D01*
X18358990Y-11697151D01*
X18349500Y-11720064D01*
X18349500Y-11720065D01*
X18349500Y-11767364D01*
X18335148Y-11802012D01*
X18322414Y-11814745D01*
X18322411Y-11814750D01*
X18313921Y-11835250D01*
X18313920Y-11835252D01*
X18299500Y-11870062D01*
X18299500Y-11917364D01*
X18285148Y-11952012D01*
X18272414Y-11964745D01*
X18272411Y-11964750D01*
X18263921Y-11985250D01*
X18263920Y-11985252D01*
X18249500Y-12020062D01*
X18249500Y-12067364D01*
X18235148Y-12102012D01*
X18222414Y-12114745D01*
X18222411Y-12114750D01*
X18213921Y-12135250D01*
X18213920Y-12135252D01*
X18199500Y-12170062D01*
X18199500Y-12267363D01*
X18185148Y-12302011D01*
X17922413Y-12564746D01*
X17908990Y-12597149D01*
X17908990Y-12597151D01*
X17899500Y-12620064D01*
X17899500Y-12620065D01*
X17899500Y-12717363D01*
X17885148Y-12752011D01*
X17872413Y-12764746D01*
X17858990Y-12797149D01*
X17858990Y-12797151D01*
X17853619Y-12810119D01*
X17849500Y-12820065D01*
X17849500Y-12967364D01*
X17835148Y-13002012D01*
X17822414Y-13014745D01*
X17822411Y-13014750D01*
X17813921Y-13035250D01*
X17813920Y-13035252D01*
X17799500Y-13070062D01*
X17799500Y-13917364D01*
X17785148Y-13952012D01*
X17552012Y-14185148D01*
X17517364Y-14199500D01*
X17320062Y-14199500D01*
X17283253Y-14214748D01*
X17264746Y-14222413D01*
X15842194Y-15644965D01*
X15807546Y-15659317D01*
X15772898Y-15644965D01*
X15762203Y-15624957D01*
X15761514Y-15625243D01*
X15759667Y-15620783D01*
X15737457Y-15587543D01*
X15704212Y-15565330D01*
X15674901Y-15559500D01*
X14755105Y-15559500D01*
X14755104Y-15559500D01*
X14755102Y-15559501D01*
X14725787Y-15565331D01*
X14725786Y-15565331D01*
X14725784Y-15565332D01*
X14725783Y-15565332D01*
X14692543Y-15587542D01*
X14670330Y-15620786D01*
X14670330Y-15620787D01*
X14664500Y-15650095D01*
X14664500Y-17369894D01*
X14664501Y-17369898D01*
X14670331Y-17399213D01*
X14670331Y-17399214D01*
X14670332Y-17399215D01*
X14670332Y-17399216D01*
X14692542Y-17432456D01*
X14692543Y-17432457D01*
X14725787Y-17454669D01*
X14755101Y-17460500D01*
X15658364Y-17460499D01*
X15693012Y-17474851D01*
X15707364Y-17509499D01*
X15693012Y-17544147D01*
X15352012Y-17885148D01*
X15317364Y-17899500D01*
X13499500Y-17899500D01*
X13464852Y-17885148D01*
X13450500Y-17850500D01*
X13450499Y-16740105D01*
X13450499Y-16740102D01*
X13444669Y-16710787D01*
X13444667Y-16710784D01*
X13444667Y-16710783D01*
X13422457Y-16677543D01*
X13389212Y-16655330D01*
X13359901Y-16649500D01*
X12440105Y-16649500D01*
X12440104Y-16649500D01*
X12440102Y-16649501D01*
X12410787Y-16655331D01*
X12410786Y-16655331D01*
X12410784Y-16655332D01*
X12410783Y-16655332D01*
X12377543Y-16677542D01*
X12355330Y-16710786D01*
X12355330Y-16710787D01*
X12349500Y-16740095D01*
X12349500Y-17064807D01*
X12335148Y-17099455D01*
X12325922Y-17105621D01*
X12326275Y-17106149D01*
X12322264Y-17108828D01*
X12258832Y-17172261D01*
X12258830Y-17172263D01*
X12224501Y-17255141D01*
X12224500Y-17255143D01*
X12224500Y-17255145D01*
X12224500Y-17344855D01*
X12224500Y-17344857D01*
X12224501Y-17344858D01*
X12258830Y-17427736D01*
X12258832Y-17427739D01*
X12322260Y-17491167D01*
X12326278Y-17493852D01*
X12325034Y-17495712D01*
X12345760Y-17516415D01*
X12349500Y-17535192D01*
X12349500Y-18459894D01*
X12349501Y-18459898D01*
X12355331Y-18489213D01*
X12355331Y-18489214D01*
X12355332Y-18489215D01*
X12355332Y-18489216D01*
X12372887Y-18515489D01*
X12377543Y-18522457D01*
X12410787Y-18544669D01*
X12440101Y-18550500D01*
X13359898Y-18550499D01*
X13389213Y-18544669D01*
X13422457Y-18522457D01*
X13444669Y-18489213D01*
X13450500Y-18459899D01*
X13450500Y-18249500D01*
X13464852Y-18214852D01*
X13499500Y-18200500D01*
X15429934Y-18200500D01*
X15429936Y-18200500D01*
X15455492Y-18189914D01*
X15485252Y-18177588D01*
X20465852Y-13196988D01*
X20500500Y-13182636D01*
X20535148Y-13196988D01*
X20549500Y-13231636D01*
X20549500Y-14174677D01*
X20564033Y-14247739D01*
X20619398Y-14330601D01*
X20690477Y-14378093D01*
X20702260Y-14385966D01*
X20775326Y-14400500D01*
X21124674Y-14400500D01*
X21173165Y-14390854D01*
X21197736Y-14385967D01*
X21197736Y-14385966D01*
X21197740Y-14385966D01*
X21229754Y-14364574D01*
X21266534Y-14357258D01*
X21297717Y-14378093D01*
X21302244Y-14386563D01*
X21308017Y-14400498D01*
X21308018Y-14400500D01*
X21322412Y-14435252D01*
X21435148Y-14547987D01*
X21449500Y-14582635D01*
X21449500Y-14775942D01*
X21435148Y-14810590D01*
X20872413Y-15373325D01*
X20858990Y-15405728D01*
X20858990Y-15405730D01*
X20851216Y-15424500D01*
X20849500Y-15428644D01*
X20849500Y-15625943D01*
X20835148Y-15660591D01*
X20172413Y-16323325D01*
X20167353Y-16335543D01*
X20167352Y-16335545D01*
X20149500Y-16378641D01*
X20149500Y-16771357D01*
X20158990Y-16794269D01*
X20172412Y-16826673D01*
X20172414Y-16826676D01*
X20172910Y-16827172D01*
X20173178Y-16827820D01*
X20175095Y-16830689D01*
X20174524Y-16831070D01*
X20187262Y-16861820D01*
X20172910Y-16896468D01*
X20138262Y-16910820D01*
X20125580Y-16909150D01*
X20089565Y-16899500D01*
X20089562Y-16899500D01*
X20010438Y-16899500D01*
X20010436Y-16899500D01*
X19934016Y-16919977D01*
X19934012Y-16919979D01*
X19865492Y-16959537D01*
X19865486Y-16959542D01*
X19159541Y-17665488D01*
X19159540Y-17665488D01*
X19119979Y-17734008D01*
X19119979Y-17734010D01*
X19099500Y-17810436D01*
X19099500Y-19019749D01*
X19092936Y-19044246D01*
X19079013Y-19068363D01*
X19069979Y-19084011D01*
X19069978Y-19084013D01*
X19049500Y-19160436D01*
X19049500Y-19169749D01*
X19042936Y-19194248D01*
X19019979Y-19234011D01*
X19018749Y-19236981D01*
X19018339Y-19236811D01*
X19009243Y-19252565D01*
X19009290Y-19252597D01*
X19008816Y-19253305D01*
X19007321Y-19255896D01*
X19006611Y-19256605D01*
X18992501Y-19277723D01*
X18961318Y-19298559D01*
X18951759Y-19299500D01*
X18760436Y-19299500D01*
X18684012Y-19319978D01*
X18684008Y-19319979D01*
X18648537Y-19340460D01*
X18640275Y-19345230D01*
X18615492Y-19359537D01*
X18615486Y-19359542D01*
X17584648Y-20390381D01*
X17550000Y-20404733D01*
X17515352Y-20390381D01*
X17484511Y-20359540D01*
X17415990Y-20319979D01*
X17339564Y-20299500D01*
X17339562Y-20299500D01*
X10660438Y-20299500D01*
X10660436Y-20299500D01*
X10584010Y-20319979D01*
X10584008Y-20319979D01*
X10515488Y-20359540D01*
X10515488Y-20359541D01*
X9859542Y-21015486D01*
X9849548Y-21032796D01*
X9819794Y-21055626D01*
X9782612Y-21050730D01*
X9766371Y-21035518D01*
X9755601Y-21019399D01*
X9755599Y-21019398D01*
X9755599Y-21019397D01*
X9672739Y-20964033D01*
X9599677Y-20949500D01*
X9599674Y-20949500D01*
X8525326Y-20949500D01*
X8525322Y-20949500D01*
X8452260Y-20964033D01*
X8369398Y-21019398D01*
X8314033Y-21102260D01*
X8299500Y-21175322D01*
X8299500Y-21524677D01*
X8314033Y-21597739D01*
X8369398Y-21680601D01*
X8452260Y-21735966D01*
X8525326Y-21750500D01*
X9599674Y-21750500D01*
X9672740Y-21735966D01*
X9755601Y-21680601D01*
X9810966Y-21597740D01*
X9811630Y-21594399D01*
X9832463Y-21563216D01*
X9869245Y-21555897D01*
X9894337Y-21569308D01*
X9915489Y-21590460D01*
X9984011Y-21630021D01*
X10019478Y-21639524D01*
X10060436Y-21650500D01*
X10060438Y-21650500D01*
X10139564Y-21650500D01*
X10166230Y-21643354D01*
X10215989Y-21630021D01*
X10284511Y-21590460D01*
X10340460Y-21534511D01*
X10380021Y-21465989D01*
X10400500Y-21389562D01*
X10400500Y-21344766D01*
X10414851Y-21310119D01*
X10490852Y-21234117D01*
X10525500Y-21219766D01*
X10560148Y-21234118D01*
X10574500Y-21268766D01*
X10574500Y-21524677D01*
X10589033Y-21597739D01*
X10602042Y-21617209D01*
X10609358Y-21653991D01*
X10595948Y-21679079D01*
X9965489Y-22309540D01*
X9909541Y-22365488D01*
X9909540Y-22365488D01*
X9869979Y-22434008D01*
X9869979Y-22434010D01*
X9849500Y-22510436D01*
X9849500Y-22898397D01*
X9835148Y-22933045D01*
X9800500Y-22947397D01*
X9765852Y-22933045D01*
X9759758Y-22925620D01*
X9755600Y-22919397D01*
X9672739Y-22864033D01*
X9599677Y-22849500D01*
X9599674Y-22849500D01*
X8525326Y-22849500D01*
X8525322Y-22849500D01*
X8452260Y-22864033D01*
X8369398Y-22919398D01*
X8314033Y-23002260D01*
X8299500Y-23075322D01*
X8299500Y-23306233D01*
X8285148Y-23340881D01*
X8250500Y-23355233D01*
X8215852Y-23340881D01*
X7214852Y-22339881D01*
X7200500Y-22305233D01*
X7200500Y-19210436D01*
X13199500Y-19210436D01*
X13199500Y-19289563D01*
X13219979Y-19365989D01*
X13219979Y-19365991D01*
X13259540Y-19434511D01*
X13315489Y-19490460D01*
X13384011Y-19530021D01*
X13419478Y-19539524D01*
X13460436Y-19550500D01*
X13460438Y-19550500D01*
X15389564Y-19550500D01*
X15420132Y-19542308D01*
X15465989Y-19530021D01*
X15488432Y-19517063D01*
X15512930Y-19510500D01*
X15683688Y-19510500D01*
X15684625Y-19510313D01*
X15753836Y-19496547D01*
X15753836Y-19496546D01*
X15753839Y-19496546D01*
X15833391Y-19443391D01*
X15886546Y-19363839D01*
X15887402Y-19359540D01*
X15900499Y-19293693D01*
X15900500Y-19293688D01*
X15900500Y-19144767D01*
X15914852Y-19110119D01*
X16040459Y-18984512D01*
X16040460Y-18984511D01*
X16060673Y-18949501D01*
X16080021Y-18915989D01*
X16100500Y-18839562D01*
X16100500Y-18830250D01*
X16107064Y-18805751D01*
X16130022Y-18765988D01*
X16134324Y-18749927D01*
X16147004Y-18727965D01*
X17340460Y-17534511D01*
X17380021Y-17465988D01*
X17397913Y-17399216D01*
X17400500Y-17389563D01*
X17400500Y-17310436D01*
X17380022Y-17234016D01*
X17380021Y-17234012D01*
X17348822Y-17179973D01*
X17340462Y-17165492D01*
X17340457Y-17165486D01*
X17284513Y-17109542D01*
X17284507Y-17109537D01*
X17228301Y-17077088D01*
X17215988Y-17069979D01*
X17215985Y-17069978D01*
X17215983Y-17069977D01*
X17139564Y-17049500D01*
X17139562Y-17049500D01*
X17060438Y-17049500D01*
X17060436Y-17049500D01*
X16984016Y-17069977D01*
X16984012Y-17069979D01*
X16915492Y-17109537D01*
X16915486Y-17109542D01*
X15609541Y-18415488D01*
X15609540Y-18415488D01*
X15569980Y-18484008D01*
X15569978Y-18484013D01*
X15564948Y-18502783D01*
X15560053Y-18514599D01*
X15519979Y-18584008D01*
X15519978Y-18584012D01*
X15501444Y-18653182D01*
X15478614Y-18682935D01*
X15454114Y-18689500D01*
X15356306Y-18689500D01*
X15286163Y-18703452D01*
X15206608Y-18756608D01*
X15153452Y-18836163D01*
X15139030Y-18908672D01*
X15137921Y-18908451D01*
X15121910Y-18938386D01*
X15090835Y-18949500D01*
X13460436Y-18949500D01*
X13384010Y-18969979D01*
X13384008Y-18969979D01*
X13315488Y-19009540D01*
X13315488Y-19009541D01*
X13259541Y-19065488D01*
X13259540Y-19065488D01*
X13219979Y-19134008D01*
X13219979Y-19134010D01*
X13199500Y-19210436D01*
X7200500Y-19210436D01*
X7200500Y-18677249D01*
X7214852Y-18642601D01*
X7222274Y-18636509D01*
X7254786Y-18614786D01*
X7306836Y-18536888D01*
X7320500Y-18468196D01*
X7320500Y-18151804D01*
X7306836Y-18083112D01*
X7280811Y-18044163D01*
X7254786Y-18005213D01*
X7196493Y-17966264D01*
X7176888Y-17953164D01*
X7176887Y-17953163D01*
X7176886Y-17953163D01*
X7108199Y-17939500D01*
X7108196Y-17939500D01*
X6691804Y-17939500D01*
X6691800Y-17939500D01*
X6623113Y-17953163D01*
X6545213Y-18005213D01*
X6493163Y-18083113D01*
X6479500Y-18151800D01*
X400500Y-18151800D01*
X400500Y-17131800D01*
X6479500Y-17131800D01*
X6479500Y-17448199D01*
X6493163Y-17516886D01*
X6493163Y-17516887D01*
X6493164Y-17516888D01*
X6504937Y-17534507D01*
X6545213Y-17594786D01*
X6576753Y-17615860D01*
X6623112Y-17646836D01*
X6691804Y-17660500D01*
X7108196Y-17660500D01*
X7176888Y-17646836D01*
X7254786Y-17594786D01*
X7306836Y-17516888D01*
X7309708Y-17502451D01*
X7312197Y-17489940D01*
X7333032Y-17458758D01*
X7360255Y-17450500D01*
X8611298Y-17450500D01*
X8645946Y-17464852D01*
X8672264Y-17491170D01*
X8755145Y-17525500D01*
X8755147Y-17525500D01*
X8844853Y-17525500D01*
X8844855Y-17525500D01*
X8927736Y-17491170D01*
X8927737Y-17491168D01*
X8927739Y-17491168D01*
X8991168Y-17427739D01*
X8991168Y-17427737D01*
X8991170Y-17427736D01*
X9025500Y-17344855D01*
X9025500Y-17255145D01*
X9025498Y-17255141D01*
X9004230Y-17203793D01*
X9000500Y-17185042D01*
X9000500Y-16782635D01*
X9014852Y-16747987D01*
X11447987Y-14314852D01*
X11482635Y-14300500D01*
X13529934Y-14300500D01*
X13529936Y-14300500D01*
X13552848Y-14291009D01*
X13585252Y-14277588D01*
X13797987Y-14064850D01*
X13832635Y-14050499D01*
X14240096Y-14050499D01*
X14240101Y-14050500D01*
X15040096Y-14050499D01*
X15040101Y-14050500D01*
X15859898Y-14050499D01*
X15889213Y-14044669D01*
X15922457Y-14022457D01*
X15944669Y-13989213D01*
X15950500Y-13959899D01*
X15950499Y-13540102D01*
X15944669Y-13510787D01*
X15944667Y-13510784D01*
X15944667Y-13510783D01*
X15922457Y-13477543D01*
X15889212Y-13455330D01*
X15859904Y-13449500D01*
X15859899Y-13449500D01*
X15649500Y-13449500D01*
X15614852Y-13435148D01*
X15600500Y-13400500D01*
X15600500Y-12988702D01*
X15614852Y-12954054D01*
X15641170Y-12927736D01*
X15675500Y-12844855D01*
X15675500Y-12755145D01*
X15641170Y-12672264D01*
X15641169Y-12672263D01*
X15641168Y-12672261D01*
X15577739Y-12608832D01*
X15577736Y-12608830D01*
X15494858Y-12574501D01*
X15494856Y-12574500D01*
X15494855Y-12574500D01*
X15405145Y-12574500D01*
X15405143Y-12574500D01*
X15405141Y-12574501D01*
X15322263Y-12608830D01*
X15258830Y-12672263D01*
X15224501Y-12755141D01*
X15224500Y-12755143D01*
X15224500Y-12755145D01*
X15224500Y-12844855D01*
X15224500Y-12844857D01*
X15224501Y-12844858D01*
X15258829Y-12927735D01*
X15258830Y-12927736D01*
X15285148Y-12954054D01*
X15299500Y-12988701D01*
X15299500Y-13400500D01*
X15285148Y-13435148D01*
X15250500Y-13449500D01*
X14624723Y-13449500D01*
X14590075Y-13435148D01*
X14579454Y-13419254D01*
X14577587Y-13414748D01*
X14385254Y-13222413D01*
X14385252Y-13222412D01*
X14352848Y-13208990D01*
X14329936Y-13199500D01*
X13370064Y-13199500D01*
X13342406Y-13210955D01*
X13342406Y-13210956D01*
X13314749Y-13222412D01*
X13314747Y-13222413D01*
X13314745Y-13222414D01*
X13102011Y-13435148D01*
X13067363Y-13449500D01*
X13032635Y-13449500D01*
X12997987Y-13435148D01*
X12785254Y-13222413D01*
X12785252Y-13222412D01*
X12752848Y-13208990D01*
X12729936Y-13199500D01*
X10970064Y-13199500D01*
X10942406Y-13210955D01*
X10942406Y-13210956D01*
X10914749Y-13222412D01*
X10914747Y-13222413D01*
X10914745Y-13222414D01*
X10702011Y-13435148D01*
X10667363Y-13449500D01*
X9440105Y-13449500D01*
X9440104Y-13449500D01*
X9440102Y-13449501D01*
X9410787Y-13455331D01*
X9410786Y-13455331D01*
X9410784Y-13455332D01*
X9410783Y-13455332D01*
X9377543Y-13477542D01*
X9355330Y-13510786D01*
X9355330Y-13510787D01*
X9349500Y-13540095D01*
X9349500Y-13959894D01*
X9349501Y-13959898D01*
X9355331Y-13989213D01*
X9355331Y-13989214D01*
X9355332Y-13989215D01*
X9355332Y-13989216D01*
X9377542Y-14022456D01*
X9377543Y-14022457D01*
X9410787Y-14044669D01*
X9440101Y-14050500D01*
X10240096Y-14050499D01*
X10240101Y-14050500D01*
X11040096Y-14050499D01*
X11040101Y-14050500D01*
X11168365Y-14050499D01*
X11203012Y-14064851D01*
X11217364Y-14099499D01*
X11203012Y-14134147D01*
X8722414Y-16614745D01*
X8722411Y-16614750D01*
X8711159Y-16641918D01*
X8711158Y-16641920D01*
X8699500Y-16670062D01*
X8699500Y-17064807D01*
X8685148Y-17099455D01*
X8675922Y-17105621D01*
X8676275Y-17106149D01*
X8672267Y-17108826D01*
X8659107Y-17121987D01*
X8645945Y-17135148D01*
X8611299Y-17149500D01*
X7364233Y-17149500D01*
X7329585Y-17135148D01*
X7316175Y-17110059D01*
X7306837Y-17063114D01*
X7254786Y-16985213D01*
X7196493Y-16946264D01*
X7176888Y-16933164D01*
X7176887Y-16933163D01*
X7176886Y-16933163D01*
X7108199Y-16919500D01*
X7108196Y-16919500D01*
X6691804Y-16919500D01*
X6691800Y-16919500D01*
X6623113Y-16933163D01*
X6545213Y-16985213D01*
X6493163Y-17063113D01*
X6479500Y-17131800D01*
X400500Y-17131800D01*
X400500Y-16049000D01*
X414852Y-16014352D01*
X449500Y-16000000D01*
X1000000Y-16000000D01*
X1000000Y-449500D01*
X1014352Y-414852D01*
X1049000Y-400500D01*
X39550500Y-400500D01*
X39585148Y-414852D01*
G37*
%TD.AperFunction*%
%TD*%
M02*
