%TF.GenerationSoftware,KiCad,Pcbnew,10.0.6*%
%TF.CreationDate,2026-09-12T16:51:36-07:00*%
%TF.ProjectId,layout,6c61796f-7574-42e6-9b69-6361645f7063,v0.0.0*%
%TF.SameCoordinates,Original*%
%TF.FileFunction,Paste,Top*%
%TF.FilePolarity,Positive*%
%FSLAX46Y46*%
G04 Gerber Fmt 4.6, Leading zero omitted, Abs format (unit mm)*
G04 Created by KiCad (PCBNEW 10.0.6) date 2026-09-12 16:51:36*
%MOMM*%
%LPD*%
G01*
G04 APERTURE LIST*
G04 Aperture macros list*
%AMRoundRect*
0 Rectangle with rounded corners*
0 $1 Rounding radius*
0 $2 $3 $4 $5 $6 $7 $8 $9 X,Y pos of 4 corners*
0 Add a 4 corners polygon primitive as box body*
4,1,4,$2,$3,$4,$5,$6,$7,$8,$9,$2,$3,0*
0 Add four circle primitives for the rounded corners*
1,1,$1+$1,$2,$3*
1,1,$1+$1,$4,$5*
1,1,$1+$1,$6,$7*
1,1,$1+$1,$8,$9*
0 Add four rect primitives between the rounded corners*
20,1,$1+$1,$2,$3,$4,$5,0*
20,1,$1+$1,$4,$5,$6,$7,0*
20,1,$1+$1,$6,$7,$8,$9,0*
20,1,$1+$1,$8,$9,$2,$3,0*%
%AMOutline5P*
0 Free polygon, 5 corners , with rotation*
0 The origin of the aperture is its center*
0 number of corners: always 5*
0 $1 to $10 corner X, Y*
0 $11 Rotation angle, in degrees counterclockwise*
0 create outline with 5 corners*
4,1,5,$1,$2,$3,$4,$5,$6,$7,$8,$9,$10,$1,$2,$11*%
%AMOutline6P*
0 Free polygon, 6 corners , with rotation*
0 The origin of the aperture is its center*
0 number of corners: always 6*
0 $1 to $12 corner X, Y*
0 $13 Rotation angle, in degrees counterclockwise*
0 create outline with 6 corners*
4,1,6,$1,$2,$3,$4,$5,$6,$7,$8,$9,$10,$11,$12,$1,$2,$13*%
%AMOutline7P*
0 Free polygon, 7 corners , with rotation*
0 The origin of the aperture is its center*
0 number of corners: always 7*
0 $1 to $14 corner X, Y*
0 $15 Rotation angle, in degrees counterclockwise*
0 create outline with 7 corners*
4,1,7,$1,$2,$3,$4,$5,$6,$7,$8,$9,$10,$11,$12,$13,$14,$1,$2,$15*%
%AMOutline8P*
0 Free polygon, 8 corners , with rotation*
0 The origin of the aperture is its center*
0 number of corners: always 8*
0 $1 to $16 corner X, Y*
0 $17 Rotation angle, in degrees counterclockwise*
0 create outline with 8 corners*
4,1,8,$1,$2,$3,$4,$5,$6,$7,$8,$9,$10,$11,$12,$13,$14,$15,$16,$1,$2,$17*%
G04 Aperture macros list end*
%ADD10R,0.900000X1.700000*%
%ADD11RoundRect,0.135000X-0.135000X-0.185000X0.135000X-0.185000X0.135000X0.185000X-0.135000X0.185000X0*%
%ADD12RoundRect,0.150000X-0.150000X0.512500X-0.150000X-0.512500X0.150000X-0.512500X0.150000X0.512500X0*%
%ADD13RoundRect,0.150000X-0.150000X-0.575000X0.150000X-0.575000X0.150000X0.575000X-0.150000X0.575000X0*%
%ADD14RoundRect,0.075000X-0.075000X-0.650000X0.075000X-0.650000X0.075000X0.650000X-0.075000X0.650000X0*%
%ADD15RoundRect,0.140000X0.170000X-0.140000X0.170000X0.140000X-0.170000X0.140000X-0.170000X-0.140000X0*%
%ADD16RoundRect,0.225000X0.250000X-0.225000X0.250000X0.225000X-0.250000X0.225000X-0.250000X-0.225000X0*%
%ADD17RoundRect,0.140000X-0.140000X-0.170000X0.140000X-0.170000X0.140000X0.170000X-0.140000X0.170000X0*%
%ADD18RoundRect,0.135000X-0.185000X0.135000X-0.185000X-0.135000X0.185000X-0.135000X0.185000X0.135000X0*%
%ADD19RoundRect,0.150000X-0.512500X-0.150000X0.512500X-0.150000X0.512500X0.150000X-0.512500X0.150000X0*%
%ADD20RoundRect,0.135000X0.185000X-0.135000X0.185000X0.135000X-0.185000X0.135000X-0.185000X-0.135000X0*%
%ADD21RoundRect,0.218750X0.218750X0.256250X-0.218750X0.256250X-0.218750X-0.256250X0.218750X-0.256250X0*%
%ADD22RoundRect,0.225000X-0.225000X-0.250000X0.225000X-0.250000X0.225000X0.250000X-0.225000X0.250000X0*%
%ADD23R,0.800000X0.400000*%
%ADD24R,0.400000X0.800000*%
%ADD25Outline5P,-0.725000X0.130500X-0.130500X0.725000X0.725000X0.725000X0.725000X-0.725000X-0.725000X-0.725000X0.000000*%
%ADD26R,1.450000X1.450000*%
%ADD27R,0.700000X0.700000*%
G04 APERTURE END LIST*
D10*
%TO.C,U5*%
X12900000Y-17600000D03*
X9500000Y-17600000D03*
%TD*%
D11*
%TO.C,R2*%
X19990000Y-18400000D03*
X21010000Y-18400000D03*
%TD*%
D12*
%TO.C,U3*%
X22850000Y-11362500D03*
X21900000Y-11362500D03*
X20950000Y-11362500D03*
X20950000Y-13637500D03*
X21900000Y-13637500D03*
X22850000Y-13637500D03*
%TD*%
D13*
%TO.C,J1*%
X16750000Y-21805000D03*
X17550000Y-21805000D03*
D14*
X18750000Y-21805000D03*
X19750000Y-21805000D03*
X20250000Y-21805000D03*
X21250000Y-21805000D03*
D13*
X22450000Y-21805000D03*
X23250000Y-21805000D03*
X23250000Y-21805000D03*
X22450000Y-21805000D03*
D14*
X21750000Y-21805000D03*
X20750000Y-21805000D03*
X19250000Y-21805000D03*
X18250000Y-21805000D03*
D13*
X17550000Y-21805000D03*
X16750000Y-21805000D03*
%TD*%
D15*
%TO.C,C2*%
X12800000Y-26780000D03*
X12800000Y-25820000D03*
%TD*%
D10*
%TO.C,U4*%
X15215000Y-16510000D03*
X18615000Y-16510000D03*
%TD*%
D11*
%TO.C,R3*%
X25490000Y-19200000D03*
X26510000Y-19200000D03*
%TD*%
D16*
%TO.C,C4*%
X26900000Y-15675000D03*
X26900000Y-14125000D03*
%TD*%
D17*
%TO.C,C5*%
X15520000Y-19100000D03*
X16480000Y-19100000D03*
%TD*%
D18*
%TO.C,R1*%
X22100000Y-5790000D03*
X22100000Y-6810000D03*
%TD*%
D19*
%TO.C,U2*%
X9062500Y-21350000D03*
X9062500Y-22300000D03*
X9062500Y-23250000D03*
X11337500Y-23250000D03*
X11337500Y-21350000D03*
%TD*%
D16*
%TO.C,C1*%
X19800000Y-7475000D03*
X19800000Y-5925000D03*
%TD*%
D20*
%TO.C,R4*%
X6900000Y-18310000D03*
X6900000Y-17290000D03*
%TD*%
D21*
%TO.C,D1*%
X26087500Y-7900000D03*
X24512500Y-7900000D03*
%TD*%
D17*
%TO.C,C7*%
X19320000Y-19600000D03*
X20280000Y-19600000D03*
%TD*%
D22*
%TO.C,C6*%
X21925000Y-16000000D03*
X23475000Y-16000000D03*
%TD*%
D11*
%TO.C,R5*%
X20290000Y-8900000D03*
X21310000Y-8900000D03*
%TD*%
D23*
%TO.C,U1*%
X8250000Y-13750000D03*
X9050000Y-13750000D03*
X9850000Y-13750000D03*
X10650000Y-13750000D03*
X11450000Y-13750000D03*
X12250000Y-13750000D03*
X13050000Y-13750000D03*
X13850000Y-13750000D03*
X14650000Y-13750000D03*
X15450000Y-13750000D03*
X16250000Y-13750000D03*
D24*
X17150000Y-12650000D03*
X17150000Y-11850000D03*
X17150000Y-11050000D03*
X17150000Y-10250000D03*
X17150000Y-9450000D03*
X17150000Y-8650000D03*
X17150000Y-7850000D03*
X17150000Y-7050000D03*
X17150000Y-6250000D03*
X17150000Y-5450000D03*
X17150000Y-4650000D03*
X17150000Y-3850000D03*
X17150000Y-3050000D03*
D23*
X16250000Y-1950000D03*
X15450000Y-1950000D03*
X14650000Y-1950000D03*
X13850000Y-1950000D03*
X13050000Y-1950000D03*
X12250000Y-1950000D03*
X11450000Y-1950000D03*
X10650000Y-1950000D03*
X9850000Y-1950000D03*
X9050000Y-1950000D03*
X8250000Y-1950000D03*
D24*
X7350000Y-3050000D03*
X7350000Y-3850000D03*
X7350000Y-4650000D03*
X7350000Y-5450000D03*
X7350000Y-6250000D03*
X7350000Y-7050000D03*
X7350000Y-7850000D03*
X7350000Y-8650000D03*
X7350000Y-9450000D03*
X7350000Y-10250000D03*
X7350000Y-11050000D03*
X7350000Y-11850000D03*
X7350000Y-12650000D03*
D25*
X10275000Y-9825000D03*
D26*
X12250000Y-9825000D03*
X14225000Y-9825000D03*
X10275000Y-7850000D03*
X12250000Y-7850000D03*
X14225000Y-7850000D03*
X10275000Y-5875000D03*
X12250000Y-5875000D03*
X14225000Y-5875000D03*
D27*
X7300000Y-1900000D03*
X17200000Y-1900000D03*
X17200000Y-13800000D03*
X7300000Y-13800000D03*
%TD*%
D17*
%TO.C,C3*%
X22685000Y-18026000D03*
X23645000Y-18026000D03*
%TD*%
M02*
